<?xml version="1.0" standalone="yes"?>

<svg version="1.1" viewBox="0.0 0.0 960.0 540.0" fill="none" stroke="none" stroke-linecap="square" stroke-miterlimit="10" xmlns="http://www.w3.org/2000/svg" xmlns:xlink="http://www.w3.org/1999/xlink"><clipPath id="g593410ee6_0_129.0"><path d="m0 0l960.0 0l0 540.0l-960.0 0l0 -540.0z" clip-rule="nonzero"></path></clipPath><g clip-path="url(#g593410ee6_0_129.0)"><path fill="#ffffff" d="m0 0l960.0 0l0 540.0l-960.0 0z" fill-rule="nonzero"></path><defs><linearGradient id="g593410ee6_0_129.1" gradientUnits="userSpaceOnUse" gradientTransform="matrix(0.9954548633800767 0.0 0.0 23.223664411857996 0.0 0.6518897509637467)" spreadMethod="pad" x1="0.0" y1="23.223664411857996" x2="23.223664411857996" y2="23.223664411857996"><stop offset="0.0" stop-color="#bfbfbf" stop-opacity="0.1882353"></stop><stop offset="0.5" stop-color="#ffffff" stop-opacity="0.1882353"></stop><stop offset="0.97" stop-color="#bfbfbf" stop-opacity="0.1882353"></stop><stop offset="1.0" stop-color="#bfbfbf" stop-opacity="0.1882353"></stop></linearGradient></defs><path fill="url(#g593410ee6_0_129.1)" d="m0 0.65188974l23.118109 0l0 539.33856l-23.118109 0z" fill-rule="nonzero"></path><defs><linearGradient id="g593410ee6_0_129.2" gradientUnits="userSpaceOnUse" gradientTransform="matrix(0.9954548633800767 0.0 0.0 23.223664411857996 24.655011995570867 0.6518897509637467)" spreadMethod="pad" x1="0.0" y1="23.223664411857996" x2="23.223664411857996" y2="23.223664411857996"><stop offset="0.0" stop-color="#bfbfbf" stop-opacity="0.1882353"></stop><stop offset="0.5" stop-color="#ffffff" stop-opacity="0.1882353"></stop><stop offset="0.97" stop-color="#bfbfbf" stop-opacity="0.1882353"></stop><stop offset="1.0" stop-color="#bfbfbf" stop-opacity="0.1882353"></stop></linearGradient></defs><path fill="url(#g593410ee6_0_129.2)" d="m24.655012 0.65188974l23.118109 0l0 539.33856l-23.118109 0z" fill-rule="nonzero"></path><defs><linearGradient id="g593410ee6_0_129.3" gradientUnits="userSpaceOnUse" gradientTransform="matrix(0.9954548633800767 0.0 0.0 23.223664411857996 49.31002399114173 0.6518897509637467)" spreadMethod="pad" x1="0.0" y1="23.223664411857996" x2="23.223664411857996" y2="23.223664411857996"><stop offset="0.0" stop-color="#bfbfbf" stop-opacity="0.1882353"></stop><stop offset="0.5" stop-color="#ffffff" stop-opacity="0.1882353"></stop><stop offset="0.97" stop-color="#bfbfbf" stop-opacity="0.1882353"></stop><stop offset="1.0" stop-color="#bfbfbf" stop-opacity="0.1882353"></stop></linearGradient></defs><path fill="url(#g593410ee6_0_129.3)" d="m49.310024 0.65188974l23.118107 0l0 539.33856l-23.118107 0z" fill-rule="nonzero"></path><defs><linearGradient id="g593410ee6_0_129.4" gradientUnits="userSpaceOnUse" gradientTransform="matrix(0.9954548633800767 0.0 0.0 23.223664411857996 73.96503854986877 0.6518897509637467)" spreadMethod="pad" x1="0.0" y1="23.223664411857996" x2="23.223664411857996" y2="23.223664411857996"><stop offset="0.0" stop-color="#bfbfbf" stop-opacity="0.1882353"></stop><stop offset="0.5" stop-color="#ffffff" stop-opacity="0.1882353"></stop><stop offset="0.97" stop-color="#bfbfbf" stop-opacity="0.1882353"></stop><stop offset="1.0" stop-color="#bfbfbf" stop-opacity="0.1882353"></stop></linearGradient></defs><path fill="url(#g593410ee6_0_129.4)" d="m73.96504 0.65188974l23.118103 0l0 539.33856l-23.118103 0z" fill-rule="nonzero"></path><defs><linearGradient id="g593410ee6_0_129.5" gradientUnits="userSpaceOnUse" gradientTransform="matrix(0.9954548633800767 0.0 0.0 23.223664411857996 98.62004798228347 0.6518897509637467)" spreadMethod="pad" x1="0.0" y1="23.223664411857996" x2="23.223664411857996" y2="23.223664411857996"><stop offset="0.0" stop-color="#bfbfbf" stop-opacity="0.1882353"></stop><stop offset="0.5" stop-color="#ffffff" stop-opacity="0.1882353"></stop><stop offset="0.97" stop-color="#bfbfbf" stop-opacity="0.1882353"></stop><stop offset="1.0" stop-color="#bfbfbf" stop-opacity="0.1882353"></stop></linearGradient></defs><path fill="url(#g593410ee6_0_129.5)" d="m98.62005 0.65188974l23.11811 0l0 539.33856l-23.11811 0z" fill-rule="nonzero"></path><defs><linearGradient id="g593410ee6_0_129.6" gradientUnits="userSpaceOnUse" gradientTransform="matrix(0.9954548633800767 0.0 0.0 23.223664411857996 123.27506766732283 0.6518897509637467)" spreadMethod="pad" x1="0.0" y1="23.223664411857996" x2="23.223664411857996" y2="23.223664411857996"><stop offset="0.0" stop-color="#bfbfbf" stop-opacity="0.1882353"></stop><stop offset="0.5" stop-color="#ffffff" stop-opacity="0.1882353"></stop><stop offset="0.97" stop-color="#bfbfbf" stop-opacity="0.1882353"></stop><stop offset="1.0" stop-color="#bfbfbf" stop-opacity="0.1882353"></stop></linearGradient></defs><path fill="url(#g593410ee6_0_129.6)" d="m123.27507 0.65188974l23.118103 0l0 539.33856l-23.118103 0z" fill-rule="nonzero"></path><defs><linearGradient id="g593410ee6_0_129.7" gradientUnits="userSpaceOnUse" gradientTransform="matrix(0.9954548633800767 0.0 0.0 23.223664411857996 147.93007709973753 0.6518897509637467)" spreadMethod="pad" x1="0.0" y1="23.223664411857996" x2="23.223664411857996" y2="23.223664411857996"><stop offset="0.0" stop-color="#bfbfbf" stop-opacity="0.1882353"></stop><stop offset="0.5" stop-color="#ffffff" stop-opacity="0.1882353"></stop><stop offset="0.97" stop-color="#bfbfbf" stop-opacity="0.1882353"></stop><stop offset="1.0" stop-color="#bfbfbf" stop-opacity="0.1882353"></stop></linearGradient></defs><path fill="url(#g593410ee6_0_129.7)" d="m147.93008 0.65188974l23.118103 0l0 539.33856l-23.118103 0z" fill-rule="nonzero"></path><defs><linearGradient id="g593410ee6_0_129.8" gradientUnits="userSpaceOnUse" gradientTransform="matrix(0.9954548633800767 0.0 0.0 23.223664411857996 172.5850967847769 0.6518897509637467)" spreadMethod="pad" x1="0.0" y1="23.223664411857996" x2="23.223664411857996" y2="23.223664411857996"><stop offset="0.0" stop-color="#bfbfbf" stop-opacity="0.1882353"></stop><stop offset="0.5" stop-color="#ffffff" stop-opacity="0.1882353"></stop><stop offset="0.97" stop-color="#bfbfbf" stop-opacity="0.1882353"></stop><stop offset="1.0" stop-color="#bfbfbf" stop-opacity="0.1882353"></stop></linearGradient></defs><path fill="url(#g593410ee6_0_129.8)" d="m172.5851 0.65188974l23.118103 0l0 539.33856l-23.118103 0z" fill-rule="nonzero"></path><defs><linearGradient id="g593410ee6_0_129.9" gradientUnits="userSpaceOnUse" gradientTransform="matrix(0.9954548633800767 0.0 0.0 23.223664411857996 197.24009596456693 0.6518897509637467)" spreadMethod="pad" x1="0.0" y1="23.223664411857996" x2="23.223664411857996" y2="23.223664411857996"><stop offset="0.0" stop-color="#bfbfbf" stop-opacity="0.1882353"></stop><stop offset="0.5" stop-color="#ffffff" stop-opacity="0.1882353"></stop><stop offset="0.97" stop-color="#bfbfbf" stop-opacity="0.1882353"></stop><stop offset="1.0" stop-color="#bfbfbf" stop-opacity="0.1882353"></stop></linearGradient></defs><path fill="url(#g593410ee6_0_129.9)" d="m197.2401 0.65188974l23.118103 0l0 539.33856l-23.118103 0z" fill-rule="nonzero"></path><defs><linearGradient id="g593410ee6_0_129.10" gradientUnits="userSpaceOnUse" gradientTransform="matrix(0.9954548633800767 0.0 0.0 23.223664411857996 221.89511564960628 0.6518897509637467)" spreadMethod="pad" x1="0.0" y1="23.223664411857996" x2="23.223664411857996" y2="23.223664411857996"><stop offset="0.0" stop-color="#bfbfbf" stop-opacity="0.1882353"></stop><stop offset="0.5" stop-color="#ffffff" stop-opacity="0.1882353"></stop><stop offset="0.97" stop-color="#bfbfbf" stop-opacity="0.1882353"></stop><stop offset="1.0" stop-color="#bfbfbf" stop-opacity="0.1882353"></stop></linearGradient></defs><path fill="url(#g593410ee6_0_129.10)" d="m221.89511 0.65188974l23.118118 0l0 539.33856l-23.118118 0z" fill-rule="nonzero"></path><defs><linearGradient id="g593410ee6_0_129.11" gradientUnits="userSpaceOnUse" gradientTransform="matrix(0.9954548633800767 0.0 0.0 23.223664411857996 246.55013533464566 0.6518897509637467)" spreadMethod="pad" x1="0.0" y1="23.223664411857996" x2="23.223664411857996" y2="23.223664411857996"><stop offset="0.0" stop-color="#bfbfbf" stop-opacity="0.1882353"></stop><stop offset="0.5" stop-color="#ffffff" stop-opacity="0.1882353"></stop><stop offset="0.97" stop-color="#bfbfbf" stop-opacity="0.1882353"></stop><stop offset="1.0" stop-color="#bfbfbf" stop-opacity="0.1882353"></stop></linearGradient></defs><path fill="url(#g593410ee6_0_129.11)" d="m246.55014 0.65188974l23.118103 0l0 539.33856l-23.118103 0z" fill-rule="nonzero"></path><defs><linearGradient id="g593410ee6_0_129.12" gradientUnits="userSpaceOnUse" gradientTransform="matrix(0.9954548633800767 0.0 0.0 23.223664411857996 271.2051345144357 0.6518897509637467)" spreadMethod="pad" x1="0.0" y1="23.223664411857996" x2="23.223664411857996" y2="23.223664411857996"><stop offset="0.0" stop-color="#bfbfbf" stop-opacity="0.1882353"></stop><stop offset="0.5" stop-color="#ffffff" stop-opacity="0.1882353"></stop><stop offset="0.97" stop-color="#bfbfbf" stop-opacity="0.1882353"></stop><stop offset="1.0" stop-color="#bfbfbf" stop-opacity="0.1882353"></stop></linearGradient></defs><path fill="url(#g593410ee6_0_129.12)" d="m271.20514 0.65188974l23.118103 0l0 539.33856l-23.118103 0z" fill-rule="nonzero"></path><defs><linearGradient id="g593410ee6_0_129.13" gradientUnits="userSpaceOnUse" gradientTransform="matrix(0.9954548633800767 0.0 0.0 23.223664411857996 295.86015419947506 0.6518897509637467)" spreadMethod="pad" x1="0.0" y1="23.223664411857996" x2="23.223664411857996" y2="23.223664411857996"><stop offset="0.0" stop-color="#bfbfbf" stop-opacity="0.1882353"></stop><stop offset="0.5" stop-color="#ffffff" stop-opacity="0.1882353"></stop><stop offset="0.97" stop-color="#bfbfbf" stop-opacity="0.1882353"></stop><stop offset="1.0" stop-color="#bfbfbf" stop-opacity="0.1882353"></stop></linearGradient></defs><path fill="url(#g593410ee6_0_129.13)" d="m295.86017 0.65188974l23.118103 0l0 539.33856l-23.118103 0z" fill-rule="nonzero"></path><defs><linearGradient id="g593410ee6_0_129.14" gradientUnits="userSpaceOnUse" gradientTransform="matrix(0.9954548633800767 0.0 0.0 23.223664411857996 320.5151738845144 0.6518897509637467)" spreadMethod="pad" x1="0.0" y1="23.223664411857996" x2="23.223664411857996" y2="23.223664411857996"><stop offset="0.0" stop-color="#bfbfbf" stop-opacity="0.1882353"></stop><stop offset="0.5" stop-color="#ffffff" stop-opacity="0.1882353"></stop><stop offset="0.97" stop-color="#bfbfbf" stop-opacity="0.1882353"></stop><stop offset="1.0" stop-color="#bfbfbf" stop-opacity="0.1882353"></stop></linearGradient></defs><path fill="url(#g593410ee6_0_129.14)" d="m320.51517 0.65188974l23.118103 0l0 539.33856l-23.118103 0z" fill-rule="nonzero"></path><defs><linearGradient id="g593410ee6_0_129.15" gradientUnits="userSpaceOnUse" gradientTransform="matrix(0.9954548633800767 0.0 0.0 23.223664411857996 345.1701935695538 0.6518897509637467)" spreadMethod="pad" x1="0.0" y1="23.223664411857996" x2="23.223664411857996" y2="23.223664411857996"><stop offset="0.0" stop-color="#bfbfbf" stop-opacity="0.1882353"></stop><stop offset="0.5" stop-color="#ffffff" stop-opacity="0.1882353"></stop><stop offset="0.97" stop-color="#bfbfbf" stop-opacity="0.1882353"></stop><stop offset="1.0" stop-color="#bfbfbf" stop-opacity="0.1882353"></stop></linearGradient></defs><path fill="url(#g593410ee6_0_129.15)" d="m345.1702 0.65188974l23.118103 0l0 539.33856l-23.118103 0z" fill-rule="nonzero"></path><defs><linearGradient id="g593410ee6_0_129.16" gradientUnits="userSpaceOnUse" gradientTransform="matrix(0.9954548633800767 0.0 0.0 23.223664411857996 369.82521325459317 0.6518897509637467)" spreadMethod="pad" x1="0.0" y1="23.223664411857996" x2="23.223664411857996" y2="23.223664411857996"><stop offset="0.0" stop-color="#bfbfbf" stop-opacity="0.1882353"></stop><stop offset="0.5" stop-color="#ffffff" stop-opacity="0.1882353"></stop><stop offset="0.97" stop-color="#bfbfbf" stop-opacity="0.1882353"></stop><stop offset="1.0" stop-color="#bfbfbf" stop-opacity="0.1882353"></stop></linearGradient></defs><path fill="url(#g593410ee6_0_129.16)" d="m369.82523 0.65188974l23.118103 0l0 539.33856l-23.118103 0z" fill-rule="nonzero"></path><defs><linearGradient id="g593410ee6_0_129.17" gradientUnits="userSpaceOnUse" gradientTransform="matrix(0.9954548633800767 0.0 0.0 23.223664411857996 394.48019192913387 0.6518897509637467)" spreadMethod="pad" x1="0.0" y1="23.223664411857996" x2="23.223664411857996" y2="23.223664411857996"><stop offset="0.0" stop-color="#bfbfbf" stop-opacity="0.1882353"></stop><stop offset="0.5" stop-color="#ffffff" stop-opacity="0.1882353"></stop><stop offset="0.97" stop-color="#bfbfbf" stop-opacity="0.1882353"></stop><stop offset="1.0" stop-color="#bfbfbf" stop-opacity="0.1882353"></stop></linearGradient></defs><path fill="url(#g593410ee6_0_129.17)" d="m394.4802 0.65188974l23.118103 0l0 539.33856l-23.118103 0z" fill-rule="nonzero"></path><defs><linearGradient id="g593410ee6_0_129.18" gradientUnits="userSpaceOnUse" gradientTransform="matrix(0.9954548633800767 0.0 0.0 23.223664411857996 419.1352116141732 0.6518897509637467)" spreadMethod="pad" x1="0.0" y1="23.223664411857996" x2="23.223664411857996" y2="23.223664411857996"><stop offset="0.0" stop-color="#bfbfbf" stop-opacity="0.1882353"></stop><stop offset="0.5" stop-color="#ffffff" stop-opacity="0.1882353"></stop><stop offset="0.97" stop-color="#bfbfbf" stop-opacity="0.1882353"></stop><stop offset="1.0" stop-color="#bfbfbf" stop-opacity="0.1882353"></stop></linearGradient></defs><path fill="url(#g593410ee6_0_129.18)" d="m419.13522 0.65188974l23.118103 0l0 539.33856l-23.118103 0z" fill-rule="nonzero"></path><defs><linearGradient id="g593410ee6_0_129.19" gradientUnits="userSpaceOnUse" gradientTransform="matrix(0.9954548633800767 0.0 0.0 23.223664411857996 443.79023129921256 0.6518897509637467)" spreadMethod="pad" x1="0.0" y1="23.223664411857996" x2="23.223664411857996" y2="23.223664411857996"><stop offset="0.0" stop-color="#bfbfbf" stop-opacity="0.1882353"></stop><stop offset="0.5" stop-color="#ffffff" stop-opacity="0.1882353"></stop><stop offset="0.97" stop-color="#bfbfbf" stop-opacity="0.1882353"></stop><stop offset="1.0" stop-color="#bfbfbf" stop-opacity="0.1882353"></stop></linearGradient></defs><path fill="url(#g593410ee6_0_129.19)" d="m443.79022 0.65188974l23.118134 0l0 539.33856l-23.118134 0z" fill-rule="nonzero"></path><defs><linearGradient id="g593410ee6_0_129.20" gradientUnits="userSpaceOnUse" gradientTransform="matrix(0.9954548633800767 0.0 0.0 23.223664411857996 468.44525098425197 0.6518897509637467)" spreadMethod="pad" x1="0.0" y1="23.223664411857996" x2="23.223664411857996" y2="23.223664411857996"><stop offset="0.0" stop-color="#bfbfbf" stop-opacity="0.1882353"></stop><stop offset="0.5" stop-color="#ffffff" stop-opacity="0.1882353"></stop><stop offset="0.97" stop-color="#bfbfbf" stop-opacity="0.1882353"></stop><stop offset="1.0" stop-color="#bfbfbf" stop-opacity="0.1882353"></stop></linearGradient></defs><path fill="url(#g593410ee6_0_129.20)" d="m468.44525 0.65188974l23.118103 0l0 539.33856l-23.118103 0z" fill-rule="nonzero"></path><defs><linearGradient id="g593410ee6_0_129.21" gradientUnits="userSpaceOnUse" gradientTransform="matrix(0.9954548633800767 0.0 0.0 23.223664411857996 493.1002706692913 0.6518897509637467)" spreadMethod="pad" x1="0.0" y1="23.223664411857996" x2="23.223664411857996" y2="23.223664411857996"><stop offset="0.0" stop-color="#bfbfbf" stop-opacity="0.1882353"></stop><stop offset="0.5" stop-color="#ffffff" stop-opacity="0.1882353"></stop><stop offset="0.97" stop-color="#bfbfbf" stop-opacity="0.1882353"></stop><stop offset="1.0" stop-color="#bfbfbf" stop-opacity="0.1882353"></stop></linearGradient></defs><path fill="url(#g593410ee6_0_129.21)" d="m493.10028 0.65188974l23.118103 0l0 539.33856l-23.118103 0z" fill-rule="nonzero"></path><defs><linearGradient id="g593410ee6_0_129.22" gradientUnits="userSpaceOnUse" gradientTransform="matrix(0.9954548633800767 0.0 0.0 23.223664411857996 517.7552903543307 0.6518897509637467)" spreadMethod="pad" x1="0.0" y1="23.223664411857996" x2="23.223664411857996" y2="23.223664411857996"><stop offset="0.0" stop-color="#bfbfbf" stop-opacity="0.1882353"></stop><stop offset="0.5" stop-color="#ffffff" stop-opacity="0.1882353"></stop><stop offset="0.97" stop-color="#bfbfbf" stop-opacity="0.1882353"></stop><stop offset="1.0" stop-color="#bfbfbf" stop-opacity="0.1882353"></stop></linearGradient></defs><path fill="url(#g593410ee6_0_129.22)" d="m517.7553 0.65188974l23.118103 0l0 539.33856l-23.118103 0z" fill-rule="nonzero"></path><defs><linearGradient id="g593410ee6_0_129.23" gradientUnits="userSpaceOnUse" gradientTransform="matrix(0.9954548633800767 0.0 0.0 23.223664411857996 542.4102690288714 0.6518897509637467)" spreadMethod="pad" x1="0.0" y1="23.223664411857996" x2="23.223664411857996" y2="23.223664411857996"><stop offset="0.0" stop-color="#bfbfbf" stop-opacity="0.1882353"></stop><stop offset="0.5" stop-color="#ffffff" stop-opacity="0.1882353"></stop><stop offset="0.97" stop-color="#bfbfbf" stop-opacity="0.1882353"></stop><stop offset="1.0" stop-color="#bfbfbf" stop-opacity="0.1882353"></stop></linearGradient></defs><path fill="url(#g593410ee6_0_129.23)" d="m542.4103 0.65188974l23.118103 0l0 539.33856l-23.118103 0z" fill-rule="nonzero"></path><defs><linearGradient id="g593410ee6_0_129.24" gradientUnits="userSpaceOnUse" gradientTransform="matrix(0.9954548633800767 0.0 0.0 23.223664411857996 567.0652887139107 0.6518897509637467)" spreadMethod="pad" x1="0.0" y1="23.223664411857996" x2="23.223664411857996" y2="23.223664411857996"><stop offset="0.0" stop-color="#bfbfbf" stop-opacity="0.1882353"></stop><stop offset="0.5" stop-color="#ffffff" stop-opacity="0.1882353"></stop><stop offset="0.97" stop-color="#bfbfbf" stop-opacity="0.1882353"></stop><stop offset="1.0" stop-color="#bfbfbf" stop-opacity="0.1882353"></stop></linearGradient></defs><path fill="url(#g593410ee6_0_129.24)" d="m567.0653 0.65188974l23.118103 0l0 539.33856l-23.118103 0z" fill-rule="nonzero"></path><defs><linearGradient id="g593410ee6_0_129.25" gradientUnits="userSpaceOnUse" gradientTransform="matrix(0.9954548633800767 0.0 0.0 23.223664411857996 591.7203083989501 0.6518897509637467)" spreadMethod="pad" x1="0.0" y1="23.223664411857996" x2="23.223664411857996" y2="23.223664411857996"><stop offset="0.0" stop-color="#bfbfbf" stop-opacity="0.1882353"></stop><stop offset="0.5" stop-color="#ffffff" stop-opacity="0.1882353"></stop><stop offset="0.97" stop-color="#bfbfbf" stop-opacity="0.1882353"></stop><stop offset="1.0" stop-color="#bfbfbf" stop-opacity="0.1882353"></stop></linearGradient></defs><path fill="url(#g593410ee6_0_129.25)" d="m591.72034 0.65188974l23.118103 0l0 539.33856l-23.118103 0z" fill-rule="nonzero"></path><defs><linearGradient id="g593410ee6_0_129.26" gradientUnits="userSpaceOnUse" gradientTransform="matrix(0.9954548633800767 0.0 0.0 23.223664411857996 616.3753280839895 0.6518897509637467)" spreadMethod="pad" x1="0.0" y1="23.223664411857996" x2="23.223664411857996" y2="23.223664411857996"><stop offset="0.0" stop-color="#bfbfbf" stop-opacity="0.1882353"></stop><stop offset="0.5" stop-color="#ffffff" stop-opacity="0.1882353"></stop><stop offset="0.97" stop-color="#bfbfbf" stop-opacity="0.1882353"></stop><stop offset="1.0" stop-color="#bfbfbf" stop-opacity="0.1882353"></stop></linearGradient></defs><path fill="url(#g593410ee6_0_129.26)" d="m616.3753 0.65188974l23.118103 0l0 539.33856l-23.118103 0z" fill-rule="nonzero"></path><defs><linearGradient id="g593410ee6_0_129.27" gradientUnits="userSpaceOnUse" gradientTransform="matrix(0.9954548633800767 0.0 0.0 23.223664411857996 641.0303477690288 0.6518897509637467)" spreadMethod="pad" x1="0.0" y1="23.223664411857996" x2="23.223664411857996" y2="23.223664411857996"><stop offset="0.0" stop-color="#bfbfbf" stop-opacity="0.1882353"></stop><stop offset="0.5" stop-color="#ffffff" stop-opacity="0.1882353"></stop><stop offset="0.97" stop-color="#bfbfbf" stop-opacity="0.1882353"></stop><stop offset="1.0" stop-color="#bfbfbf" stop-opacity="0.1882353"></stop></linearGradient></defs><path fill="url(#g593410ee6_0_129.27)" d="m641.03033 0.65188974l23.118103 0l0 539.33856l-23.118103 0z" fill-rule="nonzero"></path><defs><linearGradient id="g593410ee6_0_129.28" gradientUnits="userSpaceOnUse" gradientTransform="matrix(0.9954548633800767 0.0 0.0 23.223664411857996 665.6853674540682 0.6518897509637467)" spreadMethod="pad" x1="0.0" y1="23.223664411857996" x2="23.223664411857996" y2="23.223664411857996"><stop offset="0.0" stop-color="#bfbfbf" stop-opacity="0.1882353"></stop><stop offset="0.5" stop-color="#ffffff" stop-opacity="0.1882353"></stop><stop offset="0.97" stop-color="#bfbfbf" stop-opacity="0.1882353"></stop><stop offset="1.0" stop-color="#bfbfbf" stop-opacity="0.1882353"></stop></linearGradient></defs><path fill="url(#g593410ee6_0_129.28)" d="m665.68536 0.65188974l23.118103 0l0 539.33856l-23.118103 0z" fill-rule="nonzero"></path><defs><linearGradient id="g593410ee6_0_129.29" gradientUnits="userSpaceOnUse" gradientTransform="matrix(0.9954548633800767 0.0 0.0 23.223664411857996 690.3403871391076 0.6518897509637467)" spreadMethod="pad" x1="0.0" y1="23.223664411857996" x2="23.223664411857996" y2="23.223664411857996"><stop offset="0.0" stop-color="#bfbfbf" stop-opacity="0.1882353"></stop><stop offset="0.5" stop-color="#ffffff" stop-opacity="0.1882353"></stop><stop offset="0.97" stop-color="#bfbfbf" stop-opacity="0.1882353"></stop><stop offset="1.0" stop-color="#bfbfbf" stop-opacity="0.1882353"></stop></linearGradient></defs><path fill="url(#g593410ee6_0_129.29)" d="m690.3404 0.65188974l23.118103 0l0 539.33856l-23.118103 0z" fill-rule="nonzero"></path><defs><linearGradient id="g593410ee6_0_129.30" gradientUnits="userSpaceOnUse" gradientTransform="matrix(0.9954548633800767 0.0 0.0 23.223664411857996 714.9954068241469 0.6518897509637467)" spreadMethod="pad" x1="0.0" y1="23.223664411857996" x2="23.223664411857996" y2="23.223664411857996"><stop offset="0.0" stop-color="#bfbfbf" stop-opacity="0.1882353"></stop><stop offset="0.5" stop-color="#ffffff" stop-opacity="0.1882353"></stop><stop offset="0.97" stop-color="#bfbfbf" stop-opacity="0.1882353"></stop><stop offset="1.0" stop-color="#bfbfbf" stop-opacity="0.1882353"></stop></linearGradient></defs><path fill="url(#g593410ee6_0_129.30)" d="m714.9954 0.65188974l23.118103 0l0 539.33856l-23.118103 0z" fill-rule="nonzero"></path><defs><linearGradient id="g593410ee6_0_129.31" gradientUnits="userSpaceOnUse" gradientTransform="matrix(0.9954548633800767 0.0 0.0 23.223664411857996 739.6504265091863 0.6518897509637467)" spreadMethod="pad" x1="0.0" y1="23.223664411857996" x2="23.223664411857996" y2="23.223664411857996"><stop offset="0.0" stop-color="#bfbfbf" stop-opacity="0.1882353"></stop><stop offset="0.5" stop-color="#ffffff" stop-opacity="0.1882353"></stop><stop offset="0.97" stop-color="#bfbfbf" stop-opacity="0.1882353"></stop><stop offset="1.0" stop-color="#bfbfbf" stop-opacity="0.1882353"></stop></linearGradient></defs><path fill="url(#g593410ee6_0_129.31)" d="m739.65045 0.65188974l23.118103 0l0 539.33856l-23.118103 0z" fill-rule="nonzero"></path><defs><linearGradient id="g593410ee6_0_129.32" gradientUnits="userSpaceOnUse" gradientTransform="matrix(0.9954548633800767 0.0 0.0 23.223664411857996 764.3054461942257 0.6518897509637467)" spreadMethod="pad" x1="0.0" y1="23.223664411857996" x2="23.223664411857996" y2="23.223664411857996"><stop offset="0.0" stop-color="#bfbfbf" stop-opacity="0.1882353"></stop><stop offset="0.5" stop-color="#ffffff" stop-opacity="0.1882353"></stop><stop offset="0.97" stop-color="#bfbfbf" stop-opacity="0.1882353"></stop><stop offset="1.0" stop-color="#bfbfbf" stop-opacity="0.1882353"></stop></linearGradient></defs><path fill="url(#g593410ee6_0_129.32)" d="m764.3054 0.65188974l23.118164 0l0 539.33856l-23.118164 0z" fill-rule="nonzero"></path><defs><linearGradient id="g593410ee6_0_129.33" gradientUnits="userSpaceOnUse" gradientTransform="matrix(0.9954548633800767 0.0 0.0 23.223664411857996 788.9603838582677 0.6518897509637467)" spreadMethod="pad" x1="0.0" y1="23.223664411857996" x2="23.223664411857996" y2="23.223664411857996"><stop offset="0.0" stop-color="#bfbfbf" stop-opacity="0.1882353"></stop><stop offset="0.5" stop-color="#ffffff" stop-opacity="0.1882353"></stop><stop offset="0.97" stop-color="#bfbfbf" stop-opacity="0.1882353"></stop><stop offset="1.0" stop-color="#bfbfbf" stop-opacity="0.1882353"></stop></linearGradient></defs><path fill="url(#g593410ee6_0_129.33)" d="m788.9604 0.65188974l23.118103 0l0 539.33856l-23.118103 0z" fill-rule="nonzero"></path><defs><linearGradient id="g593410ee6_0_129.34" gradientUnits="userSpaceOnUse" gradientTransform="matrix(0.9954548633800767 0.0 0.0 23.223664411857996 813.615403543307 0.6518897509637467)" spreadMethod="pad" x1="0.0" y1="23.223664411857996" x2="23.223664411857996" y2="23.223664411857996"><stop offset="0.0" stop-color="#bfbfbf" stop-opacity="0.1882353"></stop><stop offset="0.5" stop-color="#ffffff" stop-opacity="0.1882353"></stop><stop offset="0.97" stop-color="#bfbfbf" stop-opacity="0.1882353"></stop><stop offset="1.0" stop-color="#bfbfbf" stop-opacity="0.1882353"></stop></linearGradient></defs><path fill="url(#g593410ee6_0_129.34)" d="m813.6154 0.65188974l23.118103 0l0 539.33856l-23.118103 0z" fill-rule="nonzero"></path><defs><linearGradient id="g593410ee6_0_129.35" gradientUnits="userSpaceOnUse" gradientTransform="matrix(0.9954548633800767 0.0 0.0 23.223664411857996 838.2704232283464 0.6518897509637467)" spreadMethod="pad" x1="0.0" y1="23.223664411857996" x2="23.223664411857996" y2="23.223664411857996"><stop offset="0.0" stop-color="#bfbfbf" stop-opacity="0.1882353"></stop><stop offset="0.5" stop-color="#ffffff" stop-opacity="0.1882353"></stop><stop offset="0.97" stop-color="#bfbfbf" stop-opacity="0.1882353"></stop><stop offset="1.0" stop-color="#bfbfbf" stop-opacity="0.1882353"></stop></linearGradient></defs><path fill="url(#g593410ee6_0_129.35)" d="m838.27045 0.65188974l23.118103 0l0 539.33856l-23.118103 0z" fill-rule="nonzero"></path><defs><linearGradient id="g593410ee6_0_129.36" gradientUnits="userSpaceOnUse" gradientTransform="matrix(0.9954548633800767 0.0 0.0 23.223664411857996 862.9254429133858 0.6518897509637467)" spreadMethod="pad" x1="0.0" y1="23.223664411857996" x2="23.223664411857996" y2="23.223664411857996"><stop offset="0.0" stop-color="#bfbfbf" stop-opacity="0.1882353"></stop><stop offset="0.5" stop-color="#ffffff" stop-opacity="0.1882353"></stop><stop offset="0.97" stop-color="#bfbfbf" stop-opacity="0.1882353"></stop><stop offset="1.0" stop-color="#bfbfbf" stop-opacity="0.1882353"></stop></linearGradient></defs><path fill="url(#g593410ee6_0_129.36)" d="m862.9254 0.65188974l23.118164 0l0 539.33856l-23.118164 0z" fill-rule="nonzero"></path><defs><linearGradient id="g593410ee6_0_129.37" gradientUnits="userSpaceOnUse" gradientTransform="matrix(0.9954548633800767 0.0 0.0 23.223664411857996 887.5804625984251 0.6518897509637467)" spreadMethod="pad" x1="0.0" y1="23.223664411857996" x2="23.223664411857996" y2="23.223664411857996"><stop offset="0.0" stop-color="#bfbfbf" stop-opacity="0.1882353"></stop><stop offset="0.5" stop-color="#ffffff" stop-opacity="0.1882353"></stop><stop offset="0.97" stop-color="#bfbfbf" stop-opacity="0.1882353"></stop><stop offset="1.0" stop-color="#bfbfbf" stop-opacity="0.1882353"></stop></linearGradient></defs><path fill="url(#g593410ee6_0_129.37)" d="m887.58044 0.65188974l23.118103 0l0 539.33856l-23.118103 0z" fill-rule="nonzero"></path><defs><linearGradient id="g593410ee6_0_129.38" gradientUnits="userSpaceOnUse" gradientTransform="matrix(0.9954548633800767 0.0 0.0 23.223664411857996 912.2354822834645 0.6518897509637467)" spreadMethod="pad" x1="0.0" y1="23.223664411857996" x2="23.223664411857996" y2="23.223664411857996"><stop offset="0.0" stop-color="#bfbfbf" stop-opacity="0.1882353"></stop><stop offset="0.5" stop-color="#ffffff" stop-opacity="0.1882353"></stop><stop offset="0.97" stop-color="#bfbfbf" stop-opacity="0.1882353"></stop><stop offset="1.0" stop-color="#bfbfbf" stop-opacity="0.1882353"></stop></linearGradient></defs><path fill="url(#g593410ee6_0_129.38)" d="m912.2355 0.65188974l23.118103 0l0 539.33856l-23.118103 0z" fill-rule="nonzero"></path><defs><linearGradient id="g593410ee6_0_129.39" gradientUnits="userSpaceOnUse" gradientTransform="matrix(0.9954548633800767 0.0 0.0 23.223664411857996 936.8889435695538 0.6518897509637467)" spreadMethod="pad" x1="0.0" y1="23.223664411857996" x2="23.223664411857996" y2="23.223664411857996"><stop offset="0.0" stop-color="#bfbfbf" stop-opacity="0.1882353"></stop><stop offset="0.5" stop-color="#ffffff" stop-opacity="0.1882353"></stop><stop offset="0.97" stop-color="#bfbfbf" stop-opacity="0.1882353"></stop><stop offset="1.0" stop-color="#bfbfbf" stop-opacity="0.1882353"></stop></linearGradient></defs><path fill="url(#g593410ee6_0_129.39)" d="m936.8889 0.65188974l23.118164 0l0 539.33856l-23.118164 0z" fill-rule="nonzero"></path><path fill="#000000" d="m0 -7.874016E-5l960.00006 0l0 390.89764l-960.00006 0z" fill-rule="nonzero"></path><path fill="#000000" fill-opacity="0.0" d="m237.14436 200.80511l485.22833 1.1338654" fill-rule="nonzero"></path><path stroke="#94ae8e" stroke-width="2.6666666666666665" stroke-linejoin="round" stroke-linecap="round" stroke-dasharray="0.0,10.666666666666666" d="m237.14436 200.80511l485.22833 1.1338654" fill-rule="nonzero"></path><path fill="#000000" d="m0.9323884 318.14148l957.20294 2.5565186l1.864685 73.0347l-23.292175 7.969513l-26.22113 -8.630188l-23.431702 7.0891113l-25.105286 -6.472687l-24.547424 6.164459l-25.105286 -7.0891113l-24.547485 7.397339l-24.547424 -7.0891113l-25.105286 7.0891113l-24.547546 -7.705597l-23.989502 7.705597l-24.547363 -7.705536l-24.547546 8.013794l-24.547363 -8.013794l-24.547424 8.32196l-25.663269 -8.013763l-24.547424 8.013763l-24.547424 -7.397278l-24.547485 7.7055054l-25.105316 -8.013763l-23.989502 8.3220215l-25.105377 -8.938446l-24.547424 8.630188l-24.547394 -8.013763l-23.989594 8.013763l-25.105316 -7.7055054l-25.105286 7.7055054l-24.547424 -7.7055054l-23.989594 7.7055054l-25.1053 -8.013763l-25.1053 8.3220215l-24.5475 -8.938446l-23.989502 8.938446l-25.105309 -8.3220215l-23.989601 8.3220215l-25.1053 -8.3220215l-25.105305 8.013763l-25.105406 -8.013763l-22.873701 8.3220215c0.31076115 -27.750885 0.6216273 -55.50168 0.9323884 -83.25256z" fill-rule="nonzero"></path><path fill="#000000" fill-opacity="0.0" d="m41.91706 153.85707l876.78735 0l0 44.25197l-876.78735 0z" fill-rule="nonzero"></path><path fill="#ffffff" d="m350.52167 193.06306l0 -30.78125l-11.734375 0l0 -4.125l28.09375 0l0 4.125l-11.71875 0l0 30.78125l-4.640625 0zm34.140625 -6.453125l0 -7.265625q-1.5625 0.140625 -3.96875 0.390625q-2.40625 0.25 -3.875 0.6875q-1.765625 0.546875 -2.921875 1.65625q-1.140625 1.109375 -1.140625 3.109375q0 2.25 1.265625 3.40625q1.265625 1.140625 3.703125 1.140625q2.09375 0 3.78125 -0.90625q1.6875 -0.90625 3.15625 -2.21875zm0 3.65625q-0.53125 0.40625 -1.4375 1.125q-0.90625 0.703125 -1.75 1.125q-1.171875 0.625 -2.265625 0.953125q-1.078125 0.328125 -3.046875 0.328125q-1.625 0 -3.078125 -0.625q-1.453125 -0.609375 -2.546875 -1.703125q-1.0625 -1.078125 -1.703125 -2.65625q-0.625 -1.59375 -0.625 -3.34375q0 -2.71875 1.140625 -4.625q1.15625 -1.921875 3.640625 -3.046875q2.203125 -1.0 5.203125 -1.390625q3.0 -0.390625 6.46875 -0.578125l0 -0.84375q0 -1.546875 -0.46875 -2.484375q-0.46875 -0.953125 -1.3125 -1.46875q-0.84375 -0.546875 -2.0625 -0.71875q-1.21875 -0.171875 -2.5 -0.171875q-1.53125 0 -3.59375 0.453125q-2.0625 0.453125 -4.125 1.328125l-0.25 0l0 -4.484375q1.21875 -0.34375 3.484375 -0.765625q2.28125 -0.421875 4.5 -0.421875q2.703125 0 4.546875 0.421875q1.859375 0.421875 3.328125 1.515625q1.4375 1.078125 2.140625 2.796875q0.703125 1.703125 0.703125 4.171875l0 17.90625l-4.390625 0l0 -2.796875zm17.648438 3.4375q-2.625 0 -4.90625 -0.703125q-2.28125 -0.71875 -3.78125 -1.515625l0 -4.9375l0.234375 0q0.5625 0.4375 1.3125 0.984375q0.765625 0.53125 2.03125 1.125q1.125 0.515625 2.46875 0.921875q1.359375 0.390625 2.8125 0.390625q1.046875 0 2.234375 -0.25q1.203125 -0.25 1.796875 -0.625q0.8125 -0.53125 1.171875 -1.140625q0.375 -0.609375 0.375 -1.828125q0 -1.578125 -0.859375 -2.375q-0.859375 -0.796875 -3.03125 -1.328125q-0.84375 -0.21875 -2.203125 -0.5q-1.359375 -0.28125 -2.515625 -0.609375q-3.0 -0.859375 -4.359375 -2.671875q-1.359375 -1.828125 -1.359375 -4.40625q0 -3.53125 2.671875 -5.75q2.671875 -2.234375 7.109375 -2.234375q2.171875 0 4.375 0.546875q2.203125 0.53125 3.703125 1.34375l0 4.71875l-0.234375 0q-1.6875 -1.34375 -3.765625 -2.109375q-2.0625 -0.78125 -4.171875 -0.78125q-2.1875 0 -3.6875 0.921875q-1.5 0.90625 -1.5 2.765625q0 1.640625 0.890625 2.453125q0.890625 0.796875 2.859375 1.3125q0.984375 0.265625 2.1875 0.515625q1.21875 0.234375 2.546875 0.5625q2.90625 0.734375 4.375 2.421875q1.46875 1.6875 1.46875 4.59375q0 1.6875 -0.671875 3.203125q-0.671875 1.5 -1.953125 2.578125q-1.40625 1.171875 -3.1875 1.78125q-1.765625 0.625 -4.4375 0.625zm36.046875 -0.640625l-5.78125 0l-9.78125 -12.640625l-1.734375 1.6875l0 10.953125l-4.40625 0l0 -36.46875l4.40625 0l0 21.34375l10.359375 -11.0625l5.484375 0l-10.75 10.953125l12.203125 15.234375zm13.78125 0l11.765625 -34.90625l5.71875 0l11.765625 34.90625l-4.890625 0l-3.171875 -9.75l-13.328125 0l-3.171875 9.75l-4.6875 0zm19.90625 -13.71875l-5.390625 -16.453125l-5.375 16.453125l10.765625 0zm32.875 13.71875l-4.40625 0l0 -14.90625q0 -1.8125 -0.171875 -3.359375q-0.171875 -1.5625 -0.671875 -2.5q-0.53125 -0.984375 -1.5 -1.46875q-0.953125 -0.484375 -2.625 -0.484375q-1.640625 0 -3.390625 0.890625q-1.734375 0.875 -3.40625 2.28125l0 19.546875l-4.40625 0l0 -26.1875l4.40625 0l0 2.90625q1.96875 -1.75 3.890625 -2.6875q1.921875 -0.9375 4.0625 -0.9375q3.859375 0 6.03125 2.546875q2.1875 2.53125 2.1875 7.359375l0 17.0zm20.8125 -6.453125l0 -7.265625q-1.5625 0.140625 -3.96875 0.390625q-2.40625 0.25 -3.875 0.6875q-1.765625 0.546875 -2.921875 1.65625q-1.140625 1.109375 -1.140625 3.109375q0 2.25 1.265625 3.40625q1.265625 1.140625 3.703125 1.140625q2.09375 0 3.78125 -0.90625q1.6875 -0.90625 3.15625 -2.21875zm0 3.65625q-0.53125 0.40625 -1.4375 1.125q-0.90625 0.703125 -1.75 1.125q-1.171875 0.625 -2.265625 0.953125q-1.078125 0.328125 -3.046875 0.328125q-1.625 0 -3.078125 -0.625q-1.453125 -0.609375 -2.546875 -1.703125q-1.0625 -1.078125 -1.703125 -2.65625q-0.625 -1.59375 -0.625 -3.34375q0 -2.71875 1.140625 -4.625q1.15625 -1.921875 3.640625 -3.046875q2.203125 -1.0 5.203125 -1.390625q3.0 -0.390625 6.46875 -0.578125l0 -0.84375q0 -1.546875 -0.46875 -2.484375q-0.46875 -0.953125 -1.3125 -1.46875q-0.84375 -0.546875 -2.0625 -0.71875q-1.21875 -0.171875 -2.5 -0.171875q-1.53125 0 -3.59375 0.453125q-2.0625 0.453125 -4.125 1.328125l-0.25 0l0 -4.484375q1.21875 -0.34375 3.484375 -0.765625q2.28125 -0.421875 4.5 -0.421875q2.703125 0 4.546875 0.421875q1.859375 0.421875 3.328125 1.515625q1.4375 1.078125 2.140625 2.796875q0.703125 1.703125 0.703125 4.171875l0 17.90625l-4.390625 0l0 -2.796875zm15.0703125 2.796875l-4.40625 0l0 -36.46875l4.40625 0l0 36.46875zm27.046875 -26.1875l-14.078125 35.84375l-4.71875 0l4.6875 -10.921875l-9.515625 -24.921875l4.765625 0l7.140625 19.390625l7.125 -19.390625l4.59375 0zm10.40625 26.828125q-2.625 0 -4.90625 -0.703125q-2.28125 -0.71875 -3.78125 -1.515625l0 -4.9375l0.234375 0q0.5625 0.4375 1.3125 0.984375q0.765625 0.53125 2.03125 1.125q1.125 0.515625 2.46875 0.921875q1.359375 0.390625 2.8125 0.390625q1.046875 0 2.234375 -0.25q1.203125 -0.25 1.796875 -0.625q0.8125 -0.53125 1.171875 -1.140625q0.375 -0.609375 0.375 -1.828125q0 -1.578125 -0.859375 -2.375q-0.859375 -0.796875 -3.03125 -1.328125q-0.84375 -0.21875 -2.203125 -0.5q-1.359375 -0.28125 -2.515625 -0.609375q-3.0 -0.859375 -4.359375 -2.671875q-1.359375 -1.828125 -1.359375 -4.40625q0 -3.53125 2.671875 -5.75q2.671875 -2.234375 7.109375 -2.234375q2.171875 0 4.375 0.546875q2.203125 0.53125 3.703125 1.34375l0 4.71875l-0.234375 0q-1.6875 -1.34375 -3.765625 -2.109375q-2.0625 -0.78125 -4.171875 -0.78125q-2.1875 0 -3.6875 0.921875q-1.5 0.90625 -1.5 2.765625q0 1.640625 0.890625 2.453125q0.890625 0.796875 2.859375 1.3125q0.984375 0.265625 2.1875 0.515625q1.21875 0.234375 2.546875 0.5625q2.90625 0.734375 4.375 2.421875q1.46875 1.6875 1.46875 4.59375q0 1.6875 -0.671875 3.203125q-0.671875 1.5 -1.953125 2.578125q-1.40625 1.171875 -3.1875 1.78125q-1.765625 0.625 -4.4375 0.625zm18.84375 -0.640625l-4.40625 0l0 -26.1875l4.40625 0l0 26.1875zm0.3125 -30.5625l-5.015625 0l0 -4.578125l5.015625 0l0 4.578125zm13.234375 31.203125q-2.625 0 -4.90625 -0.703125q-2.28125 -0.71875 -3.78125 -1.515625l0 -4.9375l0.234375 0q0.5625 0.4375 1.3125 0.984375q0.765625 0.53125 2.03125 1.125q1.125 0.515625 2.46875 0.921875q1.359375 0.390625 2.8125 0.390625q1.046875 0 2.234375 -0.25q1.203125 -0.25 1.796875 -0.625q0.8125 -0.53125 1.171875 -1.140625q0.375 -0.609375 0.375 -1.828125q0 -1.578125 -0.859375 -2.375q-0.859375 -0.796875 -3.03125 -1.328125q-0.84375 -0.21875 -2.203125 -0.5q-1.359375 -0.28125 -2.515625 -0.609375q-3.0 -0.859375 -4.359375 -2.671875q-1.359375 -1.828125 -1.359375 -4.40625q0 -3.53125 2.671875 -5.75q2.671875 -2.234375 7.109375 -2.234375q2.171875 0 4.375 0.546875q2.203125 0.53125 3.703125 1.34375l0 4.71875l-0.234375 0q-1.6875 -1.34375 -3.765625 -2.109375q-2.0625 -0.78125 -4.171875 -0.78125q-2.1875 0 -3.6875 0.921875q-1.5 0.90625 -1.5 2.765625q0 1.640625 0.890625 2.453125q0.890625 0.796875 2.859375 1.3125q0.984375 0.265625 2.1875 0.515625q1.21875 0.234375 2.546875 0.5625q2.90625 0.734375 4.375 2.421875q1.46875 1.6875 1.46875 4.59375q0 1.6875 -0.671875 3.203125q-0.671875 1.5 -1.953125 2.578125q-1.40625 1.171875 -3.1875 1.78125q-1.765625 0.625 -4.4375 0.625z" fill-rule="nonzero"></path><path fill="#000000" fill-opacity="0.0" d="m42.389606 208.12976l875.8426 0l0 35.93701l-875.8426 0z" fill-rule="nonzero"></path><path fill="#ffffff" d="m174.5218 225.7714l5.25 8.109375q1.40625 2.15625 2.328125 2.765625q0.921875 0.59375 2.421875 0.59375l-0.171875 0.578125l-9.03125 0l0.140625 -0.578125q1.078125 -0.109375 1.515625 -0.515625q0.453125 -0.40625 0.453125 -0.921875q0 -0.46875 -0.15625 -0.90625q-0.125 -0.3125 -0.90625 -1.53125l-4.296875 -6.734375l-2.078125 7.015625q-0.515625 1.6875 -0.515625 2.265625q0 0.59375 0.4375 0.90625q0.4375 0.3125 2.15625 0.421875l-0.25 0.578125l-8.375 0l0.203125 -0.578125q1.21875 -0.03125 1.640625 -0.21875q0.625 -0.28125 0.921875 -0.71875q0.40625 -0.640625 1.0 -2.65625l3.734375 -12.796875q0.421875 -1.46875 0.421875 -2.359375q0 -0.625 -0.40625 -0.953125q-0.390625 -0.328125 -1.546875 -0.328125l-0.3125 0l0.1875 -0.578125l7.953125 0l-0.15625 0.578125q-0.984375 -0.015625 -1.46875 0.21875q-0.671875 0.328125 -0.984375 0.84375q-0.3125 0.515625 -0.921875 2.578125l-1.640625 5.4375l7.53125 -5.671875q1.5 -1.125 1.96875 -1.78125q0.28125 -0.40625 0.28125 -0.734375q0 -0.28125 -0.296875 -0.546875q-0.28125 -0.265625 -0.875 -0.34375l0.15625 -0.578125l6.78125 0l-0.140625 0.578125q-1.109375 0.1875 -1.875 0.5q-0.75 0.296875 -1.546875 0.828125q-0.234375 0.15625 -3.046875 2.3125l-6.484375 4.921875zm18.1875 -2.09375l-2.078125 7.109375q2.921875 -4.359375 4.46875 -5.734375q1.5625 -1.375 3.0 -1.375q0.78125 0 1.28125 0.515625q0.515625 0.515625 0.515625 1.34375q0 0.9375 -0.453125 2.5l-1.90625 6.578125q-0.328125 1.140625 -0.328125 1.390625q0 0.21875 0.125 0.375q0.125 0.140625 0.265625 0.140625q0.1875 0 0.453125 -0.203125q0.828125 -0.65625 1.8125 -2.0l0.484375 0.296875q-1.453125 2.078125 -2.75 2.96875q-0.90625 0.609375 -1.625 0.609375q-0.578125 0 -0.921875 -0.359375q-0.34375 -0.34375 -0.34375 -0.9375q0 -0.75 0.53125 -2.578125l1.8125 -6.28125q0.34375 -1.171875 0.34375 -1.828125q0 -0.3125 -0.203125 -0.5q-0.203125 -0.203125 -0.5 -0.203125q-0.4375 0 -1.046875 0.375q-1.15625 0.703125 -2.40625 2.328125q-1.25 1.609375 -2.640625 4.125q-0.734375 1.328125 -1.21875 2.90625l-0.78125 2.578125l-2.34375 0l2.84375 -9.78125q0.5 -1.765625 0.5 -2.125q0 -0.34375 -0.28125 -0.59375q-0.265625 -0.265625 -0.671875 -0.265625q-0.1875 0 -0.65625 0.0625l-0.59375 0.09375l-0.09375 -0.5625l5.40625 -0.96875zm23.734375 4.890625q0 2.34375 -1.25 4.640625q-1.234375 2.296875 -3.453125 3.640625q-2.21875 1.34375 -4.3125 1.34375q-2.140625 0 -3.5 -1.359375q-1.34375 -1.375 -1.34375 -3.546875q0 -2.296875 1.3125 -4.609375q1.328125 -2.3125 3.53125 -3.65625q2.21875 -1.34375 4.28125 -1.34375q2.0625 0 3.390625 1.359375q1.34375 1.359375 1.34375 3.53125zm-2.59375 -1.078125q0 -1.453125 -0.71875 -2.21875q-0.703125 -0.78125 -1.828125 -0.78125q-2.296875 0 -4.234375 3.296875q-1.921875 3.28125 -1.921875 6.53125q0 1.484375 0.75 2.296875q0.75 0.796875 1.890625 0.796875q2.203125 0 4.125 -3.265625q1.9375 -3.28125 1.9375 -6.65625zm17.203125 -3.8125l1.078125 11.71875q2.71875 -3.1875 4.34375 -5.984375q0.953125 -1.640625 0.953125 -2.375q0 -0.34375 -0.15625 -0.609375q-0.0625 -0.140625 -0.5 -0.40625q-0.421875 -0.28125 -0.59375 -0.5625q-0.171875 -0.296875 -0.171875 -0.625q0 -0.484375 0.359375 -0.8125q0.359375 -0.34375 0.921875 -0.34375q0.640625 0 1.078125 0.484375q0.453125 0.46875 0.453125 1.265625q0 0.8125 -0.234375 1.515625q-0.46875 1.34375 -1.828125 3.46875q-1.65625 2.546875 -3.421875 4.734375q-1.75 2.171875 -2.609375 3.046875l-0.578125 0l-1.015625 -10.8125l-6.453125 10.8125l-0.6875 0q-0.109375 -6.671875 -0.671875 -10.53125q-0.234375 -1.609375 -0.78125 -2.109375q-0.390625 -0.359375 -1.1875 -0.359375q-0.453125 0 -1.15625 0.09375l0 -0.5625l4.484375 -1.046875q0.9375 2.609375 1.21875 8.015625q0.09375 2.046875 0.15625 2.578125l6.421875 -10.59375l0.578125 0zm24.25 -3.875l-1.21875 4.25l2.4531403 0l-0.265625 0.984375l-2.4375153 0l-2.6875 9.21875q-0.4375 1.484375 -0.4375 1.921875q0 0.265625 0.125 0.40625q0.125 0.140625 0.296875 0.140625q0.390625 0 1.03125 -0.546875q0.375 -0.3125 1.671875 -1.921875l0.515625 0.390625q-1.4375 2.09375 -2.71875 2.953125q-0.875 0.59375 -1.765625 0.59375q-0.6875 0 -1.125 -0.421875q-0.4375 -0.4375 -0.4375 -1.109375q0 -0.84375 0.5 -2.578125l2.609375 -9.046875l-2.359375 0l0.15625 -0.609375q1.71875 -0.46875 2.859375 -1.390625q1.140625 -0.9375 2.546875 -3.234375l0.6875 0zm9.968765 -4.203125l-4.390625 15.171875q2.84375 -4.28125 4.4375 -5.6875q1.59375 -1.40625 3.046875 -1.40625q0.75 0 1.25 0.515625q0.5 0.515625 0.5 1.375q0 1.03125 -0.4375 2.5l-1.90625 6.546875q-0.359375 1.1875 -0.359375 1.3125q0 0.21875 0.125 0.359375q0.140625 0.140625 0.3125 0.140625q0.203125 0 0.46875 -0.203125q0.890625 -0.6875 1.765625 -1.90625l0.484375 0.296875q-0.53125 0.828125 -1.484375 1.828125q-0.9375 0.984375 -1.625 1.375q-0.671875 0.375 -1.203125 0.375q-0.578125 0 -0.953125 -0.375q-0.359375 -0.359375 -0.359375 -0.9375q0 -0.6875 0.546875 -2.5625l1.796875 -6.25q0.34375 -1.171875 0.34375 -1.84375q0 -0.3125 -0.203125 -0.5q-0.1875 -0.1875 -0.5 -0.1875q-0.453125 0 -1.03125 0.34375q-1.0625 0.65625 -2.453125 2.4375q-0.375 0.484375 -2.5 3.90625q-0.65625 1.09375 -1.078125 2.390625l-1.0 3.203125l-2.34375 0l5.140625 -17.875l0.546875 -1.9375q0 -0.40625 -0.34375 -0.71875q-0.328125 -0.3125 -0.8125 -0.3125q-0.28125 0 -0.859375 0.09375l-0.328125 0.046875l0 -0.609375l5.40625 -0.90625zm10.421875 16.328125q-0.109375 0.78125 -0.109375 1.296875q0 1.390625 0.984375 2.375q0.984375 0.96875 2.390625 0.96875q1.125 0 2.15625 -0.453125q1.046875 -0.46875 3.09375 -2.046875l0.328125 0.453125q-3.703125 3.671875 -7.0625 3.671875q-2.28125 0 -3.4375 -1.4375q-1.15625 -1.4375 -1.15625 -3.171875q0 -2.328125 1.4375 -4.765625q1.4375 -2.4375 3.609375 -3.78125q2.171875 -1.359375 4.46875 -1.359375q1.65625 0 2.453125 0.671875q0.796875 0.671875 0.796875 1.59375q0 1.296875 -1.03125 2.484375q-1.359375 1.546875 -4.0 2.5q-1.75 0.640625 -4.921875 1.0zm0.109375 -0.765625q2.3125 -0.265625 3.765625 -0.90625q1.921875 -0.859375 2.875 -2.046875q0.96875 -1.203125 0.96875 -2.28125q0 -0.65625 -0.421875 -1.0625q-0.40625 -0.40625 -1.171875 -0.40625q-1.59375 0 -3.390625 1.703125q-1.78125 1.6875 -2.625 5.0zm27.765625 -7.109375l-0.28125 1.03125l-2.28125 0l-1.71875 6.828125q-1.140625 4.515625 -2.296875 6.984375q-1.640625 3.484375 -3.53125 4.8125q-1.4375 1.015625 -2.875 1.015625q-0.9375 0 -1.59375 -0.5625q-0.484375 -0.390625 -0.484375 -1.015625q0 -0.5 0.40625 -0.875q0.390625 -0.359375 0.96875 -0.359375q0.421875 0 0.71875 0.265625q0.28125 0.265625 0.28125 0.609375q0 0.34375 -0.328125 0.640625q-0.25 0.21875 -0.25 0.328125q0 0.140625 0.109375 0.21875q0.140625 0.109375 0.4375 0.109375q0.671875 0 1.421875 -0.421875q0.734375 -0.421875 1.3125 -1.265625q0.578125 -0.828125 1.09375 -2.40625q0.21875 -0.65625 1.171875 -4.328125l2.71875 -10.578125l-2.71875 0l0.21875 -1.03125q1.296875 0 1.8125 -0.171875q0.515625 -0.1875 0.9375 -0.6875q0.4375 -0.515625 1.125 -1.90625q0.921875 -1.875 1.765625 -2.90625q1.15625 -1.390625 2.421875 -2.078125q1.28125 -0.703125 2.40625 -0.703125q1.1875 0 1.90625 0.609375q0.71875 0.59375 0.71875 1.296875q0 0.546875 -0.359375 0.921875q-0.359375 0.375 -0.921875 0.375q-0.484375 0 -0.796875 -0.28125q-0.296875 -0.28125 -0.296875 -0.671875q0 -0.25 0.203125 -0.609375q0.203125 -0.375 0.203125 -0.5q0 -0.21875 -0.140625 -0.328125q-0.203125 -0.15625 -0.59375 -0.15625q-0.984375 0 -1.765625 0.625q-1.046875 0.828125 -1.875 2.59375q-0.421875 0.921875 -1.546875 4.578125l2.296875 0zm14.46875 0l-2.71875 9.3125q-0.609375 2.078125 -0.609375 2.625q0 0.28125 0.09375 0.421875q0.109375 0.125 0.28125 0.125q0.265625 0 0.578125 -0.234375q0.328125 -0.25 1.625 -1.9375l0.46875 0.359375q-1.234375 1.953125 -2.53125 2.875q-0.859375 0.59375 -1.65625 0.59375q-0.609375 0 -0.953125 -0.34375q-0.34375 -0.34375 -0.34375 -0.890625q0 -0.53125 0.203125 -1.40625q0.25 -1.15625 1.421875 -5.03125q-2.65625 4.359375 -4.453125 6.015625q-1.78125 1.65625 -3.3125 1.65625q-0.71875 0 -1.21875 -0.5q-0.5 -0.5 -0.5 -1.265625q0 -1.171875 0.6875 -3.59375l1.359375 -4.828125q0.5 -1.734375 0.5 -2.15625q0 -0.1875 -0.140625 -0.3125q-0.125 -0.140625 -0.28125 -0.140625q-0.328125 0 -0.65625 0.234375q-0.328125 0.234375 -1.484375 1.734375l-0.484375 -0.34375q1.171875 -1.8125 2.484375 -2.671875q1.0 -0.671875 1.84375 -0.671875q0.578125 0 0.9375 0.375q0.375 0.359375 0.375 0.9375q0 0.84375 -0.625 3.015625l-1.46875 5.046875q-0.609375 2.0625 -0.609375 2.609375q0 0.296875 0.1875 0.484375q0.203125 0.171875 0.53125 0.171875q0.515625 0 1.34375 -0.515625q0.828125 -0.515625 2.203125 -2.28125q1.390625 -1.78125 2.28125 -3.328125q0.90625 -1.5625 1.921875 -4.953125l0.34375 -1.1875l2.375 0zm10.453125 -8.453125l-5.34375 18.59375q-0.390625 1.390625 -0.390625 1.703125q0 0.234375 0.140625 0.390625q0.15625 0.15625 0.375 0.15625q0.296875 0 0.640625 -0.265625q0.8125 -0.640625 1.703125 -1.984375l0.46875 0.484375q-1.484375 2.09375 -2.734375 2.921875q-0.921875 0.59375 -1.75 0.59375q-0.59375 0 -1.0 -0.40625q-0.390625 -0.40625 -0.390625 -0.9375q0 -0.5625 0.5 -2.3125l4.234375 -14.65625q0.515625 -1.796875 0.515625 -2.0625q0 -0.375 -0.296875 -0.609375q-0.296875 -0.25 -0.921875 -0.25q-0.359375 0 -1.09375 0.109375l0 -0.578125l5.34375 -0.890625zm8.890625 0l-5.34375 18.59375q-0.390625 1.390625 -0.390625 1.703125q0 0.234375 0.140625 0.390625q0.15625 0.15625 0.375 0.15625q0.296875 0 0.640625 -0.265625q0.8125 -0.640625 1.703125 -1.984375l0.46875 0.484375q-1.484375 2.09375 -2.734375 2.921875q-0.921875 0.59375 -1.75 0.59375q-0.59375 0 -1.0 -0.40625q-0.390625 -0.40625 -0.390625 -0.9375q0 -0.5625 0.5 -2.3125l4.234375 -14.65625q0.515625 -1.796875 0.515625 -2.0625q0 -0.375 -0.296875 -0.609375q-0.296875 -0.25 -0.921875 -0.25q-0.359375 0 -1.09375 0.109375l0 -0.578125l5.34375 -0.890625zm18.984375 8.078125l-0.953125 4.796875l-0.578125 0q-0.078125 -2.09375 -0.890625 -3.046875q-0.8125 -0.953125 -2.015625 -0.953125q-0.96875 0 -1.546875 0.53125q-0.5625 0.53125 -0.5625 1.28125q0 0.515625 0.21875 0.984375q0.234375 0.46875 1.0 1.3125q2.03125 2.21875 2.625 3.34375q0.59375 1.125 0.59375 2.125q0 1.625 -1.359375 2.890625q-1.34375 1.25 -3.40625 1.25q-1.125 0 -2.59375 -0.53125q-0.515625 -0.1875 -0.796875 -0.1875q-0.703125 0 -1.0625 0.71875l-0.578125 0l0.953125 -5.0625l0.578125 0q0.09375 2.375 0.984375 3.359375q0.890625 0.984375 2.4375 0.984375q1.1875 0 1.875 -0.65625q0.703125 -0.671875 0.703125 -1.640625q0 -0.625 -0.25 -1.15625q-0.4375 -0.9375 -1.84375 -2.59375q-1.390625 -1.65625 -1.796875 -2.484375q-0.390625 -0.828125 -0.390625 -1.65625q0 -1.515625 1.09375 -2.5625q1.109375 -1.046875 2.84375 -1.046875q0.5 0 0.90625 0.078125q0.21875 0.046875 1.015625 0.359375q0.8125 0.296875 1.078125 0.296875q0.671875 0 1.125 -0.734375l0.59375 0zm15.90625 0.375l-2.71875 9.3125q-0.609375 2.078125 -0.609375 2.625q0 0.28125 0.09375 0.421875q0.109375 0.125 0.28125 0.125q0.265625 0 0.578125 -0.234375q0.328125 -0.25 1.625 -1.9375l0.46875 0.359375q-1.234375 1.953125 -2.53125 2.875q-0.859375 0.59375 -1.65625 0.59375q-0.609375 0 -0.953125 -0.34375q-0.34375 -0.34375 -0.34375 -0.890625q0 -0.53125 0.203125 -1.40625q0.25 -1.15625 1.421875 -5.03125q-2.65625 4.359375 -4.453125 6.015625q-1.78125 1.65625 -3.3125 1.65625q-0.71875 0 -1.21875 -0.5q-0.5 -0.5 -0.5 -1.265625q0 -1.171875 0.6875 -3.59375l1.359375 -4.828125q0.5 -1.734375 0.5 -2.15625q0 -0.1875 -0.140625 -0.3125q-0.125 -0.140625 -0.28125 -0.140625q-0.328125 0 -0.65625 0.234375q-0.328125 0.234375 -1.484375 1.734375l-0.484375 -0.34375q1.171875 -1.8125 2.484375 -2.671875q1.0 -0.671875 1.84375 -0.671875q0.578125 0 0.9375 0.375q0.375 0.359375 0.375 0.9375q0 0.84375 -0.625 3.015625l-1.46875 5.046875q-0.609375 2.0625 -0.609375 2.609375q0 0.296875 0.1875 0.484375q0.203125 0.171875 0.53125 0.171875q0.515625 0 1.34375 -0.515625q0.828125 -0.515625 2.203125 -2.28125q1.390625 -1.78125 2.28125 -3.328125q0.90625 -1.5625 1.921875 -4.953125l0.34375 -1.1875l2.375 0zm8.09375 -6.578125q0.65625 0 1.109375 0.453125q0.453125 0.453125 0.453125 1.109375q0 0.640625 -0.46875 1.109375q-0.453125 0.453125 -1.09375 0.453125q-0.640625 0 -1.109375 -0.453125q-0.453125 -0.46875 -0.453125 -1.109375q0 -0.65625 0.453125 -1.109375q0.453125 -0.453125 1.109375 -0.453125zm0.203125 6.203125l-3.09375 10.953125q-0.3125 1.109375 -0.3125 1.328125q0 0.25 0.140625 0.40625q0.15625 0.15625 0.359375 0.15625q0.234375 0 0.5625 -0.25q0.890625 -0.703125 1.796875 -2.0l0.546875 0.359375q-1.0625 1.625 -2.5 2.734375q-1.0625 0.828125 -2.03125 0.828125q-0.640625 0 -1.046875 -0.375q-0.40625 -0.390625 -0.40625 -0.96875q0 -0.578125 0.390625 -1.921875l2.03125 -7.0q0.5 -1.71875 0.5 -2.15625q0 -0.34375 -0.25 -0.5625q-0.234375 -0.21875 -0.65625 -0.21875q-0.34375 0 -1.421875 0.171875l0 -0.609375l5.390625 -0.875zm9.84375 -3.875l-1.21875 4.25l2.453125 0l-0.265625 0.984375l-2.4375 0l-2.6875 9.21875q-0.4375 1.484375 -0.4375 1.921875q0 0.265625 0.125 0.40625q0.125 0.140625 0.296875 0.140625q0.390625 0 1.03125 -0.546875q0.375 -0.3125 1.671875 -1.921875l0.515625 0.390625q-1.4375 2.09375 -2.71875 2.953125q-0.875 0.59375 -1.765625 0.59375q-0.6875 0 -1.125 -0.421875q-0.4375 -0.4375 -0.4375 -1.109375q0 -0.84375 0.5 -2.578125l2.609375 -9.046875l-2.359375 0l0.15625 -0.609375q1.71875 -0.46875 2.859375 -1.390625q1.140625 -0.9375 2.546875 -3.234375l0.6875 0zm4.390625 12.125q-0.109375 0.78125 -0.109375 1.296875q0 1.390625 0.984375 2.375q0.984375 0.96875 2.390625 0.96875q1.125 0 2.15625 -0.453125q1.046875 -0.46875 3.09375 -2.046875l0.328125 0.453125q-3.703125 3.671875 -7.0625 3.671875q-2.28125 0 -3.4375 -1.4375q-1.15625 -1.4375 -1.15625 -3.171875q0 -2.328125 1.4375 -4.765625q1.4375 -2.4375 3.609375 -3.78125q2.171875 -1.359375 4.46875 -1.359375q1.65625 0 2.453125 0.671875q0.796875 0.671875 0.796875 1.59375q0 1.296875 -1.03125 2.484375q-1.359375 1.546875 -4.0 2.5q-1.75 0.640625 -4.921875 1.0zm0.109375 -0.765625q2.3125 -0.265625 3.765625 -0.90625q1.921875 -0.859375 2.875 -2.046875q0.96875 -1.203125 0.96875 -2.28125q0 -0.65625 -0.421875 -1.0625q-0.40625 -0.40625 -1.171875 -0.40625q-1.59375 0 -3.390625 1.703125q-1.78125 1.6875 -2.625 5.0zm33.078125 -2.59375q0 2.34375 -1.25 4.640625q-1.234375 2.296875 -3.453125 3.640625q-2.21875 1.34375 -4.3125 1.34375q-2.140625 0 -3.5 -1.359375q-1.34375 -1.375 -1.34375 -3.546875q0 -2.296875 1.3125 -4.609375q1.328125 -2.3125 3.53125 -3.65625q2.21875 -1.34375 4.28125 -1.34375q2.0625 0 3.390625 1.359375q1.34375 1.359375 1.34375 3.53125zm-2.59375 -1.078125q0 -1.453125 -0.71875 -2.21875q-0.703125 -0.78125 -1.828125 -0.78125q-2.296875 0 -4.234375 3.296875q-1.921875 3.28125 -1.921875 6.53125q0 1.484375 0.75 2.296875q0.75 0.796875 1.890625 0.796875q2.203125 0 4.125 -3.265625q1.9375 -3.28125 1.9375 -6.65625zm13.28125 -3.4375l-0.28125 1.03125l-2.28125 0l-1.71875 6.828125q-1.140625 4.515625 -2.296875 6.984375q-1.640625 3.484375 -3.53125 4.8125q-1.4375 1.015625 -2.875 1.015625q-0.9375 0 -1.59375 -0.5625q-0.484375 -0.390625 -0.484375 -1.015625q0 -0.5 0.40625 -0.875q0.390625 -0.359375 0.96875 -0.359375q0.421875 0 0.71875 0.265625q0.28125 0.265625 0.28125 0.609375q0 0.34375 -0.328125 0.640625q-0.25 0.21875 -0.25 0.328125q0 0.140625 0.109375 0.21875q0.140625 0.109375 0.4375 0.109375q0.671875 0 1.421875 -0.421875q0.734375 -0.421875 1.3125 -1.265625q0.578125 -0.828125 1.09375 -2.40625q0.21875 -0.65625 1.171875 -4.328125l2.71875 -10.578125l-2.71875 0l0.21875 -1.03125q1.296875 0 1.8125 -0.171875q0.515625 -0.1875 0.9375 -0.6875q0.4375 -0.515625 1.125 -1.90625q0.921875 -1.875 1.765625 -2.90625q1.15625 -1.390625 2.421875 -2.078125q1.28125 -0.703125 2.40625 -0.703125q1.1875 0 1.90625 0.609375q0.71875 0.59375 0.71875 1.296875q0 0.546875 -0.359375 0.921875q-0.359375 0.375 -0.921875 0.375q-0.484375 0 -0.796875 -0.28125q-0.296875 -0.28125 -0.296875 -0.671875q0 -0.25 0.203125 -0.609375q0.203125 -0.375 0.203125 -0.5q0 -0.21875 -0.140625 -0.328125q-0.203125 -0.15625 -0.59375 -0.15625q-0.984375 0 -1.765625 0.625q-1.046875 0.828125 -1.875 2.59375q-0.421875 0.921875 -1.546875 4.578125l2.296875 0zm15.71875 -4.25l-1.21875 4.25l2.453125 0l-0.265625 0.984375l-2.4375 0l-2.6875 9.21875q-0.4375 1.484375 -0.4375 1.921875q0 0.265625 0.125 0.40625q0.125 0.140625 0.296875 0.140625q0.390625 0 1.03125 -0.546875q0.375 -0.3125 1.671875 -1.921875l0.515625 0.390625q-1.4375 2.09375 -2.71875 2.953125q-0.875 0.59375 -1.765625 0.59375q-0.6875 0 -1.125 -0.421875q-0.4375 -0.4375 -0.4375 -1.109375q0 -0.84375 0.5 -2.578125l2.609375 -9.046875l-2.359375 0l0.15625 -0.609375q1.71875 -0.46875 2.859375 -1.390625q1.140625 -0.9375 2.546875 -3.234375l0.6875 0zm15.59375 3.875l-3.046875 10.59375l-0.34375 1.421875q-0.046875 0.203125 -0.046875 0.34375q0 0.25 0.15625 0.4375q0.125 0.140625 0.3125 0.140625q0.203125 0 0.53125 -0.25q0.609375 -0.453125 1.625 -1.875l0.53125 0.375q-1.078125 1.625 -2.21875 2.484375q-1.140625 0.84375 -2.109375 0.84375q-0.671875 0 -1.015625 -0.34375q-0.328125 -0.328125 -0.328125 -0.96875q0 -0.765625 0.34375 -2.015625l0.328125 -1.171875q-2.046875 2.671875 -3.765625 3.734375q-1.234375 0.765625 -2.421875 0.765625q-1.140625 0 -1.96875 -0.9375q-0.828125 -0.953125 -0.828125 -2.609375q0 -2.484375 1.484375 -5.234375q1.5 -2.765625 3.796875 -4.421875q1.796875 -1.3125 3.390625 -1.3125q0.953125 0 1.578125 0.5q0.640625 0.5 0.96875 1.65625l0.5625 -1.78125l2.484375 -0.375zm-5.5625 0.8125q-1.0 0 -2.125 0.9375q-1.59375 1.328125 -2.84375 3.9375q-1.234375 2.609375 -1.234375 4.71875q0 1.0625 0.53125 1.6875q0.53125 0.609375 1.21875 0.609375q1.703125 0 3.703125 -2.515625q2.671875 -3.34375 2.671875 -6.859375q0 -1.328125 -0.515625 -1.921875q-0.515625 -0.59375 -1.40625 -0.59375zm18.15625 -0.8125l-0.953125 4.796875l-0.578125 0q-0.078125 -2.09375 -0.890625 -3.046875q-0.8125 -0.953125 -2.015625 -0.953125q-0.96875 0 -1.546875 0.53125q-0.5625 0.53125 -0.5625 1.28125q0 0.515625 0.21875 0.984375q0.234375 0.46875 1.0 1.3125q2.03125 2.21875 2.625 3.34375q0.59375 1.125 0.59375 2.125q0 1.625 -1.359375 2.890625q-1.34375 1.25 -3.40625 1.25q-1.125 0 -2.59375 -0.53125q-0.515625 -0.1875 -0.796875 -0.1875q-0.703125 0 -1.0625 0.71875l-0.578125 0l0.953125 -5.0625l0.578125 0q0.09375 2.375 0.984375 3.359375q0.890625 0.984375 2.4375 0.984375q1.1875 0 1.875 -0.65625q0.703125 -0.671875 0.703125 -1.640625q0 -0.625 -0.25 -1.15625q-0.4375 -0.9375 -1.84375 -2.59375q-1.390625 -1.65625 -1.796875 -2.484375q-0.390625 -0.828125 -0.390625 -1.65625q0 -1.515625 1.09375 -2.5625q1.109375 -1.046875 2.84375 -1.046875q0.5 0 0.90625 0.078125q0.21875 0.046875 1.015625 0.359375q0.8125 0.296875 1.078125 0.296875q0.671875 0 1.125 -0.734375l0.59375 0zm10.0 -8.078125l-4.4375 15.359375l1.78125 -1.515625q2.921875 -2.46875 3.796875 -3.65625q0.28125 -0.390625 0.28125 -0.59375q0 -0.140625 -0.09375 -0.265625q-0.09375 -0.125 -0.375 -0.203125q-0.265625 -0.078125 -0.953125 -0.078125l-0.546875 0l0.171875 -0.59375l6.828125 0l-0.15625 0.59375q-1.171875 0.0625 -2.03125 0.375q-0.84375 0.296875 -1.640625 0.890625q-1.578125 1.171875 -2.078125 1.625l-1.34375 1.1875q0.34375 1.125 0.84375 3.140625q0.84375 3.34375 1.140625 3.96875q0.296875 0.625 0.609375 0.625q0.265625 0 0.625 -0.265625q0.8125 -0.59375 1.734375 -1.890625l0.546875 0.390625q-1.703125 2.140625 -2.609375 2.828125q-0.90625 0.671875 -1.65625 0.671875q-0.65625 0 -1.015625 -0.515625q-0.625 -0.921875 -2.078125 -7.265625l-2.140625 1.859375l-1.609375 5.546875l-2.4375 0l5.1875 -17.828125l0.4375 -1.515625q0.078125 -0.390625 0.078125 -0.6875q0 -0.375 -0.296875 -0.625q-0.28125 -0.25 -0.828125 -0.25q-0.359375 0 -1.140625 0.15625l0 -0.546875l5.40625 -0.921875zm16.65625 8.078125l-0.953125 4.796875l-0.578125 0q-0.078125 -2.09375 -0.890625 -3.046875q-0.8125 -0.953125 -2.015625 -0.953125q-0.96875 0 -1.546875 0.53125q-0.5625 0.53125 -0.5625 1.28125q0 0.515625 0.21875 0.984375q0.234375 0.46875 1.0 1.3125q2.03125 2.21875 2.625 3.34375q0.59375 1.125 0.59375 2.125q0 1.625 -1.359375 2.890625q-1.34375 1.25 -3.40625 1.25q-1.125 0 -2.59375 -0.53125q-0.515625 -0.1875 -0.796875 -0.1875q-0.703125 0 -1.0625 0.71875l-0.578125 0l0.953125 -5.0625l0.578125 0q0.09375 2.375 0.984375 3.359375q0.890625 0.984375 2.4375 0.984375q1.1875 0 1.875 -0.65625q0.703125 -0.671875 0.703125 -1.640625q0 -0.625 -0.25 -1.15625q-0.4375 -0.9375 -1.84375 -2.59375q-1.390625 -1.65625 -1.796875 -2.484375q-0.390625 -0.828125 -0.390625 -1.65625q0 -1.515625 1.09375 -2.5625q1.109375 -1.046875 2.84375 -1.046875q0.5 0 0.90625 0.078125q0.21875 0.046875 1.015625 0.359375q0.8125 0.296875 1.078125 0.296875q0.671875 0 1.125 -0.734375l0.59375 0zm15.9999695 -6.203125q0.65625 0 1.109375 0.453125q0.453125 0.453125 0.453125 1.109375q0 0.640625 -0.46875 1.109375q-0.453125 0.453125 -1.09375 0.453125q-0.640625 0 -1.109375 -0.453125q-0.453125 -0.46875 -0.453125 -1.109375q0 -0.65625 0.453125 -1.109375q0.453125 -0.453125 1.109375 -0.453125zm0.203125 6.203125l-3.09375 10.953125q-0.3125 1.109375 -0.3125 1.328125q0 0.25 0.140625 0.40625q0.15625 0.15625 0.359375 0.15625q0.234375 0 0.5625 -0.25q0.890625 -0.703125 1.796875 -2.0l0.546875 0.359375q-1.0625 1.625 -2.5 2.734375q-1.0625 0.828125 -2.03125 0.828125q-0.640625 0 -1.046875 -0.375q-0.40625 -0.390625 -0.40625 -0.96875q0 -0.578125 0.390625 -1.921875l2.03125 -7.0q0.5 -1.71875 0.5 -2.15625q0 -0.34375 -0.25 -0.5625q-0.234375 -0.21875 -0.65625 -0.21875q-0.34375 0 -1.421875 0.171875l0 -0.609375l5.390625 -0.875zm8.59375 0l-2.078125 7.109375q2.921875 -4.359375 4.46875 -5.734375q1.5625 -1.375 3.0 -1.375q0.78125 0 1.28125 0.515625q0.515625 0.515625 0.515625 1.34375q0 0.9375 -0.453125 2.5l-1.90625 6.578125q-0.328125 1.140625 -0.328125 1.390625q0 0.21875 0.125 0.375q0.125 0.140625 0.265625 0.140625q0.1875 0 0.453125 -0.203125q0.828125 -0.65625 1.8125 -2.0l0.484375 0.296875q-1.453125 2.078125 -2.75 2.96875q-0.90625 0.609375 -1.625 0.609375q-0.578125 0 -0.921875 -0.359375q-0.34375 -0.34375 -0.34375 -0.9375q0 -0.75 0.53125 -2.578125l1.8125 -6.28125q0.34375 -1.171875 0.34375 -1.828125q0 -0.3125 -0.203125 -0.5q-0.203125 -0.203125 -0.5 -0.203125q-0.4375 0 -1.046875 0.375q-1.15625 0.703125 -2.40625 2.328125q-1.25 1.609375 -2.640625 4.125q-0.734375 1.328125 -1.21875 2.90625l-0.78125 2.578125l-2.34375 0l2.84375 -9.78125q0.5 -1.765625 0.5 -2.125q0 -0.34375 -0.28125 -0.59375q-0.265625 -0.265625 -0.671875 -0.265625q-0.1875 0 -0.65625 0.0625l-0.59375 0.09375l-0.09375 -0.5625l5.40625 -0.96875zm26.421875 0.375l-0.28125 1.03125l-2.28125 0l-1.71875 6.828125q-1.140625 4.515625 -2.296875 6.984375q-1.640625 3.484375 -3.53125 4.8125q-1.4375 1.015625 -2.875 1.015625q-0.9375 0 -1.59375 -0.5625q-0.484375 -0.390625 -0.484375 -1.015625q0 -0.5 0.40625 -0.875q0.390625 -0.359375 0.96875 -0.359375q0.421875 0 0.71875 0.265625q0.28125 0.265625 0.28125 0.609375q0 0.34375 -0.328125 0.640625q-0.25 0.21875 -0.25 0.328125q0 0.140625 0.109375 0.21875q0.140625 0.109375 0.4375 0.109375q0.671875 0 1.421875 -0.421875q0.734375 -0.421875 1.3125 -1.265625q0.578125 -0.828125 1.09375 -2.40625q0.21875 -0.65625 1.171875 -4.328125l2.71875 -10.578125l-2.71875 0l0.21875 -1.03125q1.296875 0 1.8125 -0.171875q0.515625 -0.1875 0.9375 -0.6875q0.4375 -0.515625 1.125 -1.90625q0.921875 -1.875 1.765625 -2.90625q1.15625 -1.390625 2.421875 -2.078125q1.28125 -0.703125 2.40625 -0.703125q1.1875 0 1.90625 0.609375q0.71875 0.59375 0.71875 1.296875q0 0.546875 -0.359375 0.921875q-0.359375 0.375 -0.921875 0.375q-0.484375 0 -0.796875 -0.28125q-0.296875 -0.28125 -0.296875 -0.671875q0 -0.25 0.203125 -0.609375q0.203125 -0.375 0.203125 -0.5q0 -0.21875 -0.140625 -0.328125q-0.203125 -0.15625 -0.59375 -0.15625q-0.984375 0 -1.765625 0.625q-1.046875 0.828125 -1.875 2.59375q-0.421875 0.921875 -1.546875 4.578125l2.296875 0zm1.078125 0.5l5.390625 -0.875l-2.25 7.59375q2.734375 -4.671875 4.96875 -6.53125q1.265625 -1.0625 2.0625 -1.0625q0.515625 0 0.8125 0.3125q0.296875 0.296875 0.296875 0.875q0 1.03125 -0.53125 1.96875q-0.375 0.703125 -1.078125 0.703125q-0.359375 0 -0.625 -0.234375q-0.25 -0.234375 -0.3125 -0.71875q-0.03125 -0.296875 -0.140625 -0.390625q-0.125 -0.125 -0.296875 -0.125q-0.265625 0 -0.5 0.125q-0.40625 0.21875 -1.234375 1.21875q-1.296875 1.53125 -2.8125 3.96875q-0.65625 1.03125 -1.125 2.328125q-0.65625 1.78125 -0.75 2.140625l-0.5 1.96875l-2.390625 0l2.890625 -9.703125q0.5 -1.6875 0.5 -2.40625q0 -0.28125 -0.234375 -0.46875q-0.3125 -0.25 -0.828125 -0.25q-0.328125 0 -1.203125 0.140625l-0.109375 -0.578125zm25.578125 4.015625q0 2.34375 -1.25 4.640625q-1.234375 2.296875 -3.453125 3.640625q-2.21875 1.34375 -4.3125 1.34375q-2.140625 0 -3.5 -1.359375q-1.34375 -1.375 -1.34375 -3.546875q0 -2.296875 1.3125 -4.609375q1.328125 -2.3125 3.53125 -3.65625q2.21875 -1.34375 4.28125 -1.34375q2.0625 0 3.390625 1.359375q1.34375 1.359375 1.34375 3.53125zm-2.59375 -1.078125q0 -1.453125 -0.71875 -2.21875q-0.703125 -0.78125 -1.828125 -0.78125q-2.296875 0 -4.234375 3.296875q-1.921875 3.28125 -1.921875 6.53125q0 1.484375 0.75 2.296875q0.75 0.796875 1.890625 0.796875q2.203125 0 4.125 -3.265625q1.9375 -3.28125 1.9375 -6.65625zm10.859375 -3.8125l-2.078125 7.109375q2.921875 -4.359375 4.46875 -5.734375q1.5625 -1.375 3.0 -1.375q0.78125 0 1.28125 0.515625q0.515625 0.515625 0.515625 1.34375q0 0.9375 -0.453125 2.5l-1.90625 6.578125q-0.328125 1.140625 -0.328125 1.390625q0 0.21875 0.125 0.375q0.125 0.140625 0.265625 0.140625q0.1875 0 0.453125 -0.203125q0.828125 -0.65625 1.8125 -2.0l0.484375 0.296875q-1.453125 2.078125 -2.75 2.96875q-0.90625 0.609375 -1.625 0.609375q-0.578125 0 -0.921875 -0.359375q-0.34375 -0.34375 -0.34375 -0.9375q0 -0.75 0.53125 -2.578125l1.8125 -6.28125q0.34375 -1.171875 0.34375 -1.828125q0 -0.3125 -0.203125 -0.5q-0.203125 -0.203125 -0.5 -0.203125q-0.4375 0 -1.046875 0.375q-1.15625 0.703125 -2.40625 2.328125q-1.25 1.609375 -2.640625 4.125q-0.734375 1.328125 -1.21875 2.90625l-0.78125 2.578125l-2.34375 0l2.84375 -9.78125q0.5 -1.765625 0.5 -2.125q0 -0.34375 -0.28125 -0.59375q-0.265625 -0.265625 -0.671875 -0.265625q-0.1875 0 -0.65625 0.0625l-0.59375 0.09375l-0.09375 -0.5625l5.40625 -0.96875zm17.25 -3.875l-1.21875 4.25l2.453125 0l-0.265625 0.984375l-2.4375 0l-2.6875 9.21875q-0.4375 1.484375 -0.4375 1.921875q0 0.265625 0.125 0.40625q0.125 0.140625 0.296875 0.140625q0.390625 0 1.03125 -0.546875q0.375 -0.3125 1.671875 -1.921875l0.515625 0.390625q-1.4375 2.09375 -2.71875 2.953125q-0.875 0.59375 -1.765625 0.59375q-0.6875 0 -1.125 -0.421875q-0.4375 -0.4375 -0.4375 -1.109375q0 -0.84375 0.5 -2.578125l2.609375 -9.046875l-2.359375 0l0.15625 -0.609375q1.71875 -0.46875 2.859375 -1.390625q1.140625 -0.9375 2.546875 -3.234375l0.6875 0zm23.375 8.765625q0 2.34375 -1.25 4.640625q-1.234375 2.296875 -3.453125 3.640625q-2.21875 1.34375 -4.3125 1.34375q-2.140625 0 -3.5 -1.359375q-1.34375 -1.375 -1.34375 -3.546875q0 -2.296875 1.3125 -4.609375q1.328125 -2.3125 3.53125 -3.65625q2.21875 -1.34375 4.28125 -1.34375q2.0625 0 3.390625 1.359375q1.34375 1.359375 1.34375 3.53125zm-2.59375 -1.078125q0 -1.453125 -0.71875 -2.21875q-0.703125 -0.78125 -1.828125 -0.78125q-2.296875 0 -4.234375 3.296875q-1.921875 3.28125 -1.921875 6.53125q0 1.484375 0.75 2.296875q0.75 0.796875 1.890625 0.796875q2.203125 0 4.125 -3.265625q1.9375 -3.28125 1.9375 -6.65625zm13.28125 -3.4375l-0.28125 1.03125l-2.28125 0l-1.71875 6.828125q-1.140625 4.515625 -2.296875 6.984375q-1.640625 3.484375 -3.53125 4.8125q-1.4375 1.015625 -2.875 1.015625q-0.9375 0 -1.59375 -0.5625q-0.484375 -0.390625 -0.484375 -1.015625q0 -0.5 0.40625 -0.875q0.390625 -0.359375 0.96875 -0.359375q0.421875 0 0.71875 0.265625q0.28125 0.265625 0.28125 0.609375q0 0.34375 -0.328125 0.640625q-0.25 0.21875 -0.25 0.328125q0 0.140625 0.109375 0.21875q0.140625 0.109375 0.4375 0.109375q0.671875 0 1.421875 -0.421875q0.734375 -0.421875 1.3125 -1.265625q0.578125 -0.828125 1.09375 -2.40625q0.21875 -0.65625 1.171875 -4.328125l2.71875 -10.578125l-2.71875 0l0.21875 -1.03125q1.296875 0 1.8125 -0.171875q0.515625 -0.1875 0.9375 -0.6875q0.4375 -0.515625 1.125 -1.90625q0.921875 -1.875 1.765625 -2.90625q1.15625 -1.390625 2.421875 -2.078125q1.28125 -0.703125 2.40625 -0.703125q1.1875 0 1.90625 0.609375q0.71875 0.59375 0.71875 1.296875q0 0.546875 -0.359375 0.921875q-0.359375 0.375 -0.921875 0.375q-0.484375 0 -0.796875 -0.28125q-0.296875 -0.28125 -0.296875 -0.671875q0 -0.25 0.203125 -0.609375q0.203125 -0.375 0.203125 -0.5q0 -0.21875 -0.140625 -0.328125q-0.203125 -0.15625 -0.59375 -0.15625q-0.984375 0 -1.765625 0.625q-1.046875 0.828125 -1.875 2.59375q-0.421875 0.921875 -1.546875 4.578125l2.296875 0zm12.515625 -0.375q0.53125 0.90625 0.734375 1.703125q0.203125 0.78125 0.40625 3.09375l0.6875 7.6875q0.9375 -1.125 2.71875 -3.5625q0.859375 -1.1875 2.125 -3.234375q0.765625 -1.25 0.9375 -1.75q0.09375 -0.25 0.09375 -0.515625q0 -0.171875 -0.109375 -0.28125q-0.109375 -0.109375 -0.578125 -0.25q-0.453125 -0.15625 -0.765625 -0.546875q-0.296875 -0.40625 -0.296875 -0.921875q0 -0.640625 0.375 -1.03125q0.375 -0.390625 0.9375 -0.390625q0.6875 0 1.171875 0.578125q0.484375 0.5625 0.484375 1.5625q0 1.234375 -0.84375 2.828125q-0.84375 1.578125 -3.25 4.859375q-2.40625 3.28125 -5.828125 7.15625q-2.359375 2.671875 -3.5 3.359375q-1.140625 0.703125 -1.953125 0.703125q-0.484375 0 -0.84375 -0.375q-0.375 -0.359375 -0.375 -0.84375q0 -0.609375 0.515625 -1.109375q0.5 -0.5 1.09375 -0.5q0.3125 0 0.515625 0.140625q0.125 0.078125 0.28125 0.4375q0.140625 0.375 0.265625 0.5q0.078125 0.078125 0.1875 0.078125q0.09375 0 0.328125 -0.15625q0.859375 -0.53125 2.0 -1.6875q1.5 -1.53125 2.21875 -2.5l-0.875 -9.90625q-0.21875 -2.453125 -0.65625 -2.984375q-0.4375 -0.53125 -1.46875 -0.53125q-0.328125 0 -1.171875 0.09375l-0.140625 -0.578125l4.578125 -1.125zm23.890625 4.890625q0 2.34375 -1.25 4.640625q-1.234375 2.296875 -3.453125 3.640625q-2.21875 1.34375 -4.3125 1.34375q-2.140625 0 -3.5 -1.359375q-1.34375 -1.375 -1.34375 -3.546875q0 -2.296875 1.3125 -4.609375q1.328125 -2.3125 3.53125 -3.65625q2.21875 -1.34375 4.28125 -1.34375q2.0625 0 3.390625 1.359375q1.34375 1.359375 1.34375 3.53125zm-2.59375 -1.078125q0 -1.453125 -0.71875 -2.21875q-0.703125 -0.78125 -1.828125 -0.78125q-2.296875 0 -4.234375 3.296875q-1.921875 3.28125 -1.921875 6.53125q0 1.484375 0.75 2.296875q0.75 0.796875 1.890625 0.796875q2.203125 0 4.125 -3.265625q1.9375 -3.28125 1.9375 -6.65625zm18.859375 -3.4375l-2.71875 9.3125q-0.609375 2.078125 -0.609375 2.625q0 0.28125 0.09375 0.421875q0.109375 0.125 0.28125 0.125q0.265625 0 0.578125 -0.234375q0.328125 -0.25 1.625 -1.9375l0.46875 0.359375q-1.234375 1.953125 -2.53125 2.875q-0.859375 0.59375 -1.65625 0.59375q-0.609375 0 -0.953125 -0.34375q-0.34375 -0.34375 -0.34375 -0.890625q0 -0.53125 0.203125 -1.40625q0.25 -1.15625 1.421875 -5.03125q-2.65625 4.359375 -4.453125 6.015625q-1.78125 1.65625 -3.3125 1.65625q-0.71875 0 -1.21875 -0.5q-0.5 -0.5 -0.5 -1.265625q0 -1.171875 0.6875 -3.59375l1.359375 -4.828125q0.5 -1.734375 0.5 -2.15625q0 -0.1875 -0.140625 -0.3125q-0.125 -0.140625 -0.28125 -0.140625q-0.328125 0 -0.65625 0.234375q-0.328125 0.234375 -1.484375 1.734375l-0.484375 -0.34375q1.171875 -1.8125 2.484375 -2.671875q1.0 -0.671875 1.84375 -0.671875q0.578125 0 0.9375 0.375q0.375 0.359375 0.375 0.9375q0 0.84375 -0.625 3.015625l-1.46875 5.046875q-0.609375 2.0625 -0.609375 2.609375q0 0.296875 0.1875 0.484375q0.203125 0.171875 0.53125 0.171875q0.515625 0 1.34375 -0.515625q0.828125 -0.515625 2.203125 -2.28125q1.390625 -1.78125 2.28125 -3.328125q0.90625 -1.5625 1.921875 -4.953125l0.34375 -1.1875l2.375 0zm2.609375 0.5l5.390625 -0.875l-2.25 7.59375q2.734375 -4.671875 4.96875 -6.53125q1.265625 -1.0625 2.0625 -1.0625q0.515625 0 0.8125 0.3125q0.296875 0.296875 0.296875 0.875q0 1.03125 -0.53125 1.96875q-0.375 0.703125 -1.078125 0.703125q-0.359375 0 -0.625 -0.234375q-0.25 -0.234375 -0.3125 -0.71875q-0.03125 -0.296875 -0.140625 -0.390625q-0.125 -0.125 -0.296875 -0.125q-0.265625 0 -0.5 0.125q-0.40625 0.21875 -1.234375 1.21875q-1.296875 1.53125 -2.8125 3.96875q-0.65625 1.03125 -1.125 2.328125q-0.65625 1.78125 -0.75 2.140625l-0.5 1.96875l-2.390625 0l2.890625 -9.703125q0.5 -1.6875 0.5 -2.40625q0 -0.28125 -0.234375 -0.46875q-0.3125 -0.25 -0.828125 -0.25q-0.328125 0 -1.203125 0.140625l-0.109375 -0.578125zm33.84375 -0.5l-2.71875 9.3125q-0.609375 2.078125 -0.609375 2.625q0 0.28125 0.09375 0.421875q0.109375 0.125 0.28125 0.125q0.265625 0 0.578125 -0.234375q0.328125 -0.25 1.625 -1.9375l0.46875 0.359375q-1.234375 1.953125 -2.53125 2.875q-0.859375 0.59375 -1.65625 0.59375q-0.609375 0 -0.953125 -0.34375q-0.34375 -0.34375 -0.34375 -0.890625q0 -0.53125 0.203125 -1.40625q0.25 -1.15625 1.421875 -5.03125q-2.65625 4.359375 -4.453125 6.015625q-1.78125 1.65625 -3.3125 1.65625q-0.71875 0 -1.21875 -0.5q-0.5 -0.5 -0.5 -1.265625q0 -1.171875 0.6875 -3.59375l1.359375 -4.828125q0.5 -1.734375 0.5 -2.15625q0 -0.1875 -0.140625 -0.3125q-0.125 -0.140625 -0.28125 -0.140625q-0.328125 0 -0.65625 0.234375q-0.328125 0.234375 -1.484375 1.734375l-0.484375 -0.34375q1.171875 -1.8125 2.484375 -2.671875q1.0 -0.671875 1.84375 -0.671875q0.578125 0 0.9375 0.375q0.375 0.359375 0.375 0.9375q0 0.84375 -0.625 3.015625l-1.46875 5.046875q-0.609375 2.0625 -0.609375 2.609375q0 0.296875 0.1875 0.484375q0.203125 0.171875 0.53125 0.171875q0.515625 0 1.34375 -0.515625q0.828125 -0.515625 2.203125 -2.28125q1.390625 -1.78125 2.28125 -3.328125q0.90625 -1.5625 1.921875 -4.953125l0.34375 -1.1875l2.375 0zm12.546875 -0.375l-0.953125 4.796875l-0.578125 0q-0.078125 -2.09375 -0.890625 -3.046875q-0.8125 -0.953125 -2.015625 -0.953125q-0.96875 0 -1.546875 0.53125q-0.5625 0.53125 -0.5625 1.28125q0 0.515625 0.21875 0.984375q0.234375 0.46875 1.0 1.3125q2.03125 2.21875 2.625 3.34375q0.59375 1.125 0.59375 2.125q0 1.625 -1.359375 2.890625q-1.34375 1.25 -3.40625 1.25q-1.125 0 -2.59375 -0.53125q-0.515625 -0.1875 -0.796875 -0.1875q-0.703125 0 -1.0625 0.71875l-0.578125 0l0.953125 -5.0625l0.578125 0q0.09375 2.375 0.984375 3.359375q0.890625 0.984375 2.4375 0.984375q1.1875 0 1.875 -0.65625q0.703125 -0.671875 0.703125 -1.640625q0 -0.625 -0.25 -1.15625q-0.4375 -0.9375 -1.84375 -2.59375q-1.390625 -1.65625 -1.796875 -2.484375q-0.390625 -0.828125 -0.390625 -1.65625q0 -1.515625 1.09375 -2.5625q1.109375 -1.046875 2.84375 -1.046875q0.5 0 0.90625 0.078125q0.21875 0.046875 1.015625 0.359375q0.8125 0.296875 1.078125 0.296875q0.671875 0 1.125 -0.734375l0.59375 0zm4.65625 8.25q-0.109375 0.78125 -0.109375 1.296875q0 1.390625 0.984375 2.375q0.984375 0.96875 2.390625 0.96875q1.125 0 2.15625 -0.453125q1.046875 -0.46875 3.09375 -2.046875l0.328125 0.453125q-3.703125 3.671875 -7.0625 3.671875q-2.28125 0 -3.4375 -1.4375q-1.15625 -1.4375 -1.15625 -3.171875q0 -2.328125 1.4375 -4.765625q1.4375 -2.4375 3.609375 -3.78125q2.171875 -1.359375 4.46875 -1.359375q1.65625 0 2.453125 0.671875q0.796875 0.671875 0.796875 1.59375q0 1.296875 -1.03125 2.484375q-1.359375 1.546875 -4.0 2.5q-1.75 0.640625 -4.921875 1.0zm0.109375 -0.765625q2.3125 -0.265625 3.765625 -0.90625q1.921875 -0.859375 2.875 -2.046875q0.96875 -1.203125 0.96875 -2.28125q0 -0.65625 -0.421875 -1.0625q-0.40625 -0.40625 -1.171875 -0.40625q-1.59375 0 -3.390625 1.703125q-1.78125 1.6875 -2.625 5.0zm11.953125 -6.609375l5.390625 -0.875l-2.25 7.59375q2.734375 -4.671875 4.96875 -6.53125q1.265625 -1.0625 2.0625 -1.0625q0.515625 0 0.8125 0.3125q0.296875 0.296875 0.296875 0.875q0 1.03125 -0.53125 1.96875q-0.375 0.703125 -1.078125 0.703125q-0.359375 0 -0.625 -0.234375q-0.25 -0.234375 -0.3125 -0.71875q-0.03125 -0.296875 -0.140625 -0.390625q-0.125 -0.125 -0.296875 -0.125q-0.265625 0 -0.5 0.125q-0.40625 0.21875 -1.234375 1.21875q-1.296875 1.53125 -2.8125 3.96875q-0.65625 1.03125 -1.125 2.328125q-0.65625 1.78125 -0.75 2.140625l-0.5 1.96875l-2.390625 0l2.890625 -9.703125q0.5 -1.6875 0.5 -2.40625q0 -0.28125 -0.234375 -0.46875q-0.3125 -0.25 -0.828125 -0.25q-0.328125 0 -1.203125 0.140625l-0.109375 -0.578125zm22.390625 -0.875l-0.953125 4.796875l-0.578125 0q-0.078125 -2.09375 -0.890625 -3.046875q-0.8125 -0.953125 -2.015625 -0.953125q-0.96875 0 -1.546875 0.53125q-0.5625 0.53125 -0.5625 1.28125q0 0.515625 0.21875 0.984375q0.234375 0.46875 1.0 1.3125q2.03125 2.21875 2.625 3.34375q0.59375 1.125 0.59375 2.125q0 1.625 -1.359375 2.890625q-1.34375 1.25 -3.40625 1.25q-1.125 0 -2.59375 -0.53125q-0.515625 -0.1875 -0.796875 -0.1875q-0.703125 0 -1.0625 0.71875l-0.578125 0l0.953125 -5.0625l0.578125 0q0.09375 2.375 0.984375 3.359375q0.890625 0.984375 2.4375 0.984375q1.1875 0 1.875 -0.65625q0.703125 -0.671875 0.703125 -1.640625q0 -0.625 -0.25 -1.15625q-0.4375 -0.9375 -1.84375 -2.59375q-1.390625 -1.65625 -1.796875 -2.484375q-0.390625 -0.828125 -0.390625 -1.65625q0 -1.515625 1.09375 -2.5625q1.109375 -1.046875 2.84375 -1.046875q0.5 0 0.90625 0.078125q0.21875 0.046875 1.015625 0.359375q0.8125 0.296875 1.078125 0.296875q0.671875 0 1.125 -0.734375l0.59375 0zm3.5 11.34375q0.671875 0 1.125 0.46875q0.46875 0.453125 0.46875 1.109375q0 0.65625 -0.46875 1.125q-0.46875 0.453125 -1.125 0.453125q-0.65625 0 -1.125 -0.453125q-0.453125 -0.46875 -0.453125 -1.125q0 -0.65625 0.453125 -1.109375q0.46875 -0.46875 1.125 -0.46875z" fill-rule="nonzero"></path></g></svg>

