<?xml version="1.0" encoding="UTF-8" standalone="no"?>
<!-- Created with Inkscape (http://www.inkscape.org/) -->

<svg
   xmlns:dc="http://purl.org/dc/elements/1.1/"
   xmlns:cc="http://creativecommons.org/ns#"
   xmlns:rdf="http://www.w3.org/1999/02/22-rdf-syntax-ns#"
   xmlns:svg="http://www.w3.org/2000/svg"
   xmlns="http://www.w3.org/2000/svg"
   xmlns:sodipodi="http://sodipodi.sourceforge.net/DTD/sodipodi-0.dtd"
   xmlns:inkscape="http://www.inkscape.org/namespaces/inkscape"
   width="744.09448819"
   height="1052.3622047"
   id="svg2"
   version="1.1"
   inkscape:version="0.48.2 r9819"
   sodipodi:docname="beacon_logo_v2d.svg">
  <defs
     id="defs4">
    <inkscape:path-effect
       effect="spiro"
       id="path-effect3015"
       is_visible="true" />
    <inkscape:path-effect
       effect="spiro"
       id="path-effect3011"
       is_visible="true" />
    <inkscape:path-effect
       effect="spiro"
       id="path-effect3007"
       is_visible="true" />
    <inkscape:path-effect
       effect="spiro"
       id="path-effect3003"
       is_visible="true" />
    <inkscape:path-effect
       effect="spiro"
       id="path-effect2999"
       is_visible="true" />
  </defs>
  <sodipodi:namedview
     id="base"
     pagecolor="#ffffff"
     bordercolor="#666666"
     borderopacity="1.0"
     inkscape:pageopacity="0.0"
     inkscape:pageshadow="2"
     inkscape:zoom="2"
     inkscape:cx="335.09766"
     inkscape:cy="603.94365"
     inkscape:document-units="px"
     inkscape:current-layer="layer3"
     showgrid="false"
     inkscape:object-paths="false"
     inkscape:snap-intersection-paths="false"
     inkscape:object-nodes="false"
     inkscape:snap-nodes="true"
     inkscape:snap-smooth-nodes="false"
     inkscape:snap-grids="true"
     inkscape:window-width="924"
     inkscape:window-height="607"
     inkscape:window-x="255"
     inkscape:window-y="39"
     inkscape:window-maximized="0"
     inkscape:snap-midpoints="true" />
  <metadata
     id="metadata7">
    <rdf:RDF>
      <cc:Work
         rdf:about="">
        <dc:format>image/svg+xml</dc:format>
        <dc:type
           rdf:resource="http://purl.org/dc/dcmitype/StillImage" />
        <dc:title />
      </cc:Work>
    </rdf:RDF>
  </metadata>
  <g
     inkscape:label="Layer 1"
     inkscape:groupmode="layer"
     id="layer1" />
  <g
     inkscape:label="star copy"
     id="g3051"
     inkscape:groupmode="layer">
    <path
       inkscape:transform-center-y="-0.29216594"
       inkscape:transform-center-x="-0.11939986"
       d="m 419.44924,459.18078 -31.61223,-44.93454 -32.88572,44.01108 23.10833,-49.84427 -54.55757,-6.47433 54.72057,-4.90972 -21.67186,-50.48541 31.61223,44.93454 32.88572,-44.01108 -23.10833,49.84426 54.55757,6.47433 -54.72057,4.90973 z"
       inkscape:randomized="0"
       inkscape:rounded="0"
       inkscape:flatsided="false"
       sodipodi:arg2="1.5851131"
       sodipodi:arg1="1.0615142"
       sodipodi:r2="11.385222"
       sodipodi:r1="64.504562"
       sodipodi:cy="402.86218"
       sodipodi:cx="388"
       sodipodi:sides="6"
       id="path3053"
       style="fill:#ff9955"
       sodipodi:type="star"
       transform="matrix(1.5096059,0,0,1.4456461,-215.59786,-142.1023)" />
  </g>
  <g
     inkscape:groupmode="layer"
     id="layer2"
     inkscape:label="beacon">
    <flowRoot
       xml:space="preserve"
       id="flowRoot2986"
       style="font-size:40px;font-style:normal;font-variant:normal;font-weight:normal;font-stretch:normal;text-align:center;line-height:125%;letter-spacing:0px;word-spacing:0px;text-anchor:middle;fill:#000000;fill-opacity:1;stroke:none;font-family:Sans;-inkscape-font-specification:Sans"><flowRegion
         id="flowRegion2988"><rect
           id="rect2990"
           width="433"
           height="168"
           x="179"
           y="413.36218"
           style="font-style:normal;font-variant:normal;font-weight:normal;font-stretch:normal;text-align:center;text-anchor:middle;font-family:Sans;-inkscape-font-specification:Sans" /></flowRegion><flowPara
         id="flowPara2992">bea  on</flowPara></flowRoot>  </g>
  <g
     inkscape:groupmode="layer"
     id="layer3"
     inkscape:label="man">
    <path
       sodipodi:type="arc"
       id="path2995"
       sodipodi:cx="409.5"
       sodipodi:cy="427.86218"
       sodipodi:rx="4.5"
       sodipodi:ry="4.5"
       d="m 414,427.86218 a 4.5,4.5 0 1 1 -9,0 4.5,4.5 0 1 1 9,0 z"
       style="fill:#008080"
       transform="matrix(0.79905729,0,0,0.75440335,76.234326,105.96556)" />
    <path
       style="fill:none;stroke:#000000;stroke-width:1px;stroke-linecap:butt;stroke-linejoin:miter;stroke-opacity:1"
       d="m 395.5,453.24497 0,0"
       id="path3001"
       inkscape:path-effect="#path-effect3003"
       inkscape:original-d="m 395.5,453.24497 c 0,0 -21.5,-16.61722 0,0 z"
       inkscape:connector-curvature="0" />
    <path
       style="fill:none;stroke:#000000;stroke-width:1px;stroke-linecap:butt;stroke-linejoin:miter;stroke-opacity:1"
       d="m 395.5,453.24497 0,0"
       id="path3009"
       inkscape:path-effect="#path-effect3011"
       inkscape:original-d="m 395.5,453.24497 c 0,0 -2,22.88278 0,0 z"
       inkscape:connector-curvature="0" />
    <path
       style="fill:#008080"
       id="path3372"
       d="m 390.39177,424.81988 c 1.20294,0.0107 2.40495,-0.002 3.58584,0.18657 1.14245,0.1946 2.03477,0.69117 2.9188,1.23448 0.93394,0.6029 1.4584,1.43803 1.9141,2.27694 0.90054,1.84758 1.5518,3.75523 2.33954,5.6302 1.06262,2.33803 2.31889,4.62001 3.59463,6.89575 0.50972,0.84801 0.90292,1.73652 1.43407,2.57756 0.19045,0.30156 0.40878,0.59283 0.60437,0.89254 0.49714,0.77366 0.93704,1.56945 1.20796,2.40508 0.1886,0.68543 0.21256,1.38595 0.22989,2.08303 8.8e-4,0.60692 0.0275,1.21465 -0.0283,1.82043 -0.0428,0.54632 -0.20607,1.07769 -0.36841,1.60901 -0.11791,0.404 -0.14848,0.81894 -0.16103,1.23131 0.0171,0.43332 -0.0679,0.86168 -0.13603,1.29057 0,0 -3.75385,1.39404 -3.75385,1.39404 l 0,0 c 0.063,-0.41794 0.15303,-0.83433 0.13046,-1.25601 0.0139,-0.43105 0.0314,-0.86237 0.12545,-1.2889 0.15854,-0.52364 0.3795,-1.03727 0.4173,-1.57779 0.0799,-0.59561 0.0318,-1.19602 0.0483,-1.794 -0.006,-0.67722 -0.018,-1.35829 -0.17891,-2.02681 -0.2407,-0.81905 -0.65402,-1.5998 -1.13621,-2.35538 -0.19558,-0.30637 -0.41305,-0.60491 -0.59944,-0.91449 -0.51307,-0.85217 -0.87177,-1.75404 -1.34238,-2.61884 -1.21401,-2.30386 -2.43251,-4.60634 -3.56929,-6.93247 -0.80836,-1.85242 -1.48347,-3.7394 -2.45306,-5.55048 -0.46596,-0.7784 -0.95589,-1.57381 -1.85126,-2.13031 -0.83955,-0.51053 -1.69995,-0.95695 -2.78826,-1.11292 -1.19099,-0.14479 -2.39428,-0.14048 -3.59805,-0.10851 0,0 3.41378,-1.8606 3.41378,-1.8606 z"
       inkscape:connector-curvature="0" />
    <path
       style="fill:#000000;fill-opacity:1;fill-rule:nonzero;stroke:none"
       id="path3002"
       d="m 419.31748,428.271 c -0.87063,-0.0827 -1.70693,-0.01 -2.56061,0.12086 -0.60672,0.12472 -1.18628,0.33697 -1.7409,0.57223 -0.21966,0.0932 -0.86104,0.39957 -0.64669,0.29835 5.82739,-2.7517 7.24819,-3.52758 4.85901,-2.24688 -1.06433,0.54 -2.03051,1.17743 -2.97289,1.8488 -0.75606,0.53651 -1.45192,1.12203 -2.20294,1.66264 -0.84804,0.53904 -1.77172,0.98173 -2.62379,1.51725 -0.76449,0.57398 -1.5784,1.11975 -2.15051,1.83675 -0.41258,0.49026 -0.47597,1.04169 -0.53233,1.61836 -0.0314,0.77914 0.0111,1.55726 -0.0124,2.33661 0.15923,1.47094 0.89744,2.83392 1.67927,4.14363 0.71752,1.185 1.59846,2.29811 2.32902,3.47754 0.71944,0.95319 1.40428,1.92286 1.97341,2.94311 0.48369,0.75578 0.99618,1.45474 1.79978,2.00245 0.7273,0.48116 1.31981,1.06813 1.97189,1.612 0.65752,0.58585 1.48985,0.983 2.16203,1.55591 0.79592,0.56065 1.61753,1.11648 2.51943,1.56036 0.83686,0.51569 1.8353,0.69843 2.85192,0.79861 0.87961,0.0188 1.80068,0.16339 2.65943,-0.0308 2.56778,-0.509 7.79747,-3.31508 -3.62191,1.97845 0,0 6.73326,-2.25744 6.73326,-2.25744 l 0,0 c -2.69374,1.33724 -5.62769,3.44071 -8.97461,3.88958 -0.91554,0.0216 -1.83524,-0.0109 -2.73948,-0.13729 -1.09094,-0.1606 -2.12689,-0.46431 -3.03846,-0.99609 -0.90718,-0.50104 -1.75107,-1.07442 -2.56686,-1.67143 -0.73755,-0.51915 -1.56446,-0.94777 -2.21675,-1.54824 -0.64315,-0.5248 -1.20917,-1.11142 -1.91952,-1.58041 -0.87013,-0.62053 -1.38893,-1.40748 -1.90271,-2.24645 -0.59648,-1.00179 -1.19362,-2.00554 -1.94021,-2.93954 -0.73076,-1.18333 -1.56097,-2.32682 -2.20614,-3.54625 -0.81476,-1.38099 -1.64454,-2.77595 -2.03451,-4.28677 -0.0342,-0.78242 -0.0144,-1.56379 -0.0192,-2.34657 -0.016,-0.64289 -0.0555,-1.32128 0.35619,-1.89399 0.55846,-0.80807 1.29817,-1.42026 2.12068,-2.0514 0.8059,-0.56221 1.65757,-1.05273 2.55504,-1.50589 0.84486,-0.47617 1.50927,-1.08748 2.27044,-1.64834 0.96238,-0.69481 1.88834,-1.41244 3.01397,-1.93433 2.87543,-1.72783 6.41403,-3.64507 10.02887,-4.38262 0.91234,-0.10322 1.82759,-0.0809 2.74603,-0.11343 0,0 -6.00619,3.59068 -6.00619,3.59068 z"
       inkscape:connector-curvature="0" />
  </g>
  <g
     inkscape:groupmode="layer"
     id="layer4"
     inkscape:label="star"
     style="display:none">
    <path
       sodipodi:type="star"
       style="fill:#008080"
       id="path3049"
       sodipodi:sides="5"
       sodipodi:cx="388"
       sodipodi:cy="402.86218"
       sodipodi:r1="4.4154067"
       sodipodi:r2="11.385222"
       sodipodi:arg1="0.31388795"
       sodipodi:arg2="-0.76463034"
       inkscape:flatsided="false"
       inkscape:rounded="0"
       inkscape:randomized="0"
       d="m 392.19967,404.22548 4.01634,-9.24495 -8.21481,12.29706 10.03358,0.96292 -14.23371,-4.01275 2.18475,9.84006 -0.5821,-14.77707 -8.68333,5.11857 13.87395,-5.11998 -7.55135,-6.67661 z"
       inkscape:transform-center-x="-0.07908908"
       inkscape:transform-center-y="-0.20211018" />
  </g>
</svg>
